<mxfile host="app.diagrams.net" modified="2020-12-11T17:22:34.791Z" agent="5.0 (Windows NT 10.0; Win64; x64) AppleWebKit/537.36 (KHTML, like Gecko) Chrome/87.0.4280.88 Safari/537.36" etag="R141PbivME_TxdGcGzND" version="14.0.1" type="github">
  <diagram id="R2lEEEUBdFMjLlhIrx00" name="Page-1">
    <mxGraphModel dx="2525" dy="1719" grid="0" gridSize="10" guides="1" tooltips="1" connect="1" arrows="1" fold="1" page="0" pageScale="1" pageWidth="1100" pageHeight="850" background="#114B5F" math="0" shadow="0" extFonts="Permanent Marker^https://fonts.googleapis.com/css?family=Permanent+Marker">
      <root>
        <mxCell id="0" />
        <mxCell id="1" parent="0" />
        <mxCell id="BBe3EE57aWuY_gIeYWjr-1" value="&lt;h3&gt;&lt;font size=&quot;1&quot;&gt;&lt;i style=&quot;font-size: 18px&quot;&gt;Branch&lt;/i&gt;&lt;/font&gt;&lt;/h3&gt;" style="whiteSpace=wrap;html=1;align=center;rounded=0;sketch=0;strokeColor=#028090;fillColor=#F45B69;fontColor=#E4FDE1;" parent="1" vertex="1">
          <mxGeometry x="-215" y="-311" width="105" height="54" as="geometry" />
        </mxCell>
        <mxCell id="BBe3EE57aWuY_gIeYWjr-3" value="&lt;h3&gt;&lt;font size=&quot;1&quot;&gt;&lt;i style=&quot;font-size: 16px&quot;&gt;Departement&lt;/i&gt;&lt;/font&gt;&lt;/h3&gt;" style="whiteSpace=wrap;html=1;align=center;rounded=0;sketch=0;strokeColor=#028090;fillColor=#F45B69;fontColor=#E4FDE1;" parent="1" vertex="1">
          <mxGeometry x="410" y="-210" width="105" height="54" as="geometry" />
        </mxCell>
        <mxCell id="BBe3EE57aWuY_gIeYWjr-4" value="&lt;h3&gt;&lt;font size=&quot;1&quot;&gt;&lt;i style=&quot;font-size: 18px&quot;&gt;Employee&lt;/i&gt;&lt;/font&gt;&lt;/h3&gt;" style="whiteSpace=wrap;html=1;align=center;rounded=0;sketch=0;strokeColor=#028090;fillColor=#F45B69;fontColor=#E4FDE1;" parent="1" vertex="1">
          <mxGeometry x="857" y="-314" width="105" height="54" as="geometry" />
        </mxCell>
        <mxCell id="BBe3EE57aWuY_gIeYWjr-5" value="&lt;font size=&quot;1&quot;&gt;&lt;i style=&quot;font-size: 18px&quot;&gt;Manages&lt;/i&gt;&lt;/font&gt;" style="shape=rhombus;perimeter=rhombusPerimeter;whiteSpace=wrap;html=1;align=center;rounded=0;sketch=0;strokeColor=#028090;fillColor=#F45B69;fontColor=#E4FDE1;" parent="1" vertex="1">
          <mxGeometry x="344" y="-419" width="126" height="76" as="geometry" />
        </mxCell>
        <mxCell id="BBe3EE57aWuY_gIeYWjr-7" value="" style="endArrow=none;html=1;rounded=0;strokeColor=#028090;fillColor=#F45B69;fontColor=#E4FDE1;exitX=0;exitY=0;exitDx=0;exitDy=0;fontSize=14;shadow=0;sketch=0;strokeWidth=4;entryX=1;entryY=0.5;entryDx=0;entryDy=0;labelBackgroundColor=#114B5F;" parent="1" source="BBe3EE57aWuY_gIeYWjr-4" target="BBe3EE57aWuY_gIeYWjr-5" edge="1">
          <mxGeometry relative="1" as="geometry">
            <mxPoint x="461" y="-28" as="sourcePoint" />
            <mxPoint x="603" y="-350" as="targetPoint" />
            <Array as="points">
              <mxPoint x="677" y="-381" />
            </Array>
          </mxGeometry>
        </mxCell>
        <mxCell id="BBe3EE57aWuY_gIeYWjr-8" value="1" style="resizable=0;html=1;align=right;verticalAlign=bottom;fillColor=#F45B69;strokeColor=#028090;fontColor=#E4FDE1;" parent="BBe3EE57aWuY_gIeYWjr-7" connectable="0" vertex="1">
          <mxGeometry x="1" relative="1" as="geometry" />
        </mxCell>
        <mxCell id="BBe3EE57aWuY_gIeYWjr-13" value="" style="shape=link;html=1;rounded=0;shadow=0;strokeColor=#028090;strokeWidth=4;fillColor=#F45B69;fontSize=14;fontColor=#E4FDE1;entryX=0;entryY=0.5;entryDx=0;entryDy=0;labelBackgroundColor=#114B5F;" parent="1" source="BBe3EE57aWuY_gIeYWjr-1" target="BBe3EE57aWuY_gIeYWjr-5" edge="1">
          <mxGeometry relative="1" as="geometry">
            <mxPoint x="120" y="-305" as="sourcePoint" />
            <mxPoint x="280" y="-305" as="targetPoint" />
            <Array as="points">
              <mxPoint x="50" y="-381" />
            </Array>
          </mxGeometry>
        </mxCell>
        <mxCell id="BBe3EE57aWuY_gIeYWjr-14" value="1" style="resizable=0;html=1;align=right;verticalAlign=bottom;fillColor=#F45B69;strokeColor=#028090;fontColor=#E4FDE1;" parent="BBe3EE57aWuY_gIeYWjr-13" connectable="0" vertex="1">
          <mxGeometry x="1" relative="1" as="geometry" />
        </mxCell>
        <mxCell id="BBe3EE57aWuY_gIeYWjr-15" value="" style="shape=link;html=1;rounded=0;shadow=0;strokeColor=#028090;strokeWidth=4;fillColor=#F45B69;fontSize=14;fontColor=#E4FDE1;exitX=0.505;exitY=0.019;exitDx=0;exitDy=0;exitPerimeter=0;entryX=0.5;entryY=1;entryDx=0;entryDy=0;labelBackgroundColor=#114B5F;" parent="1" source="BBe3EE57aWuY_gIeYWjr-3" target="BBe3EE57aWuY_gIeYWjr-5" edge="1">
          <mxGeometry relative="1" as="geometry">
            <mxPoint x="382" y="-28" as="sourcePoint" />
            <mxPoint x="542" y="-28" as="targetPoint" />
            <Array as="points">
              <mxPoint x="461" y="-221" />
              <mxPoint x="461" y="-297" />
              <mxPoint x="407" y="-297" />
            </Array>
          </mxGeometry>
        </mxCell>
        <mxCell id="BBe3EE57aWuY_gIeYWjr-16" value="1" style="resizable=0;html=1;align=right;verticalAlign=bottom;fillColor=#F45B69;strokeColor=#028090;fontColor=#E4FDE1;" parent="BBe3EE57aWuY_gIeYWjr-15" connectable="0" vertex="1">
          <mxGeometry x="1" relative="1" as="geometry" />
        </mxCell>
        <mxCell id="BBe3EE57aWuY_gIeYWjr-19" value="&lt;i&gt;&lt;font style=&quot;font-size: 18px&quot;&gt;Has&lt;/font&gt;&lt;br&gt;&lt;/i&gt;" style="shape=rhombus;perimeter=rhombusPerimeter;whiteSpace=wrap;html=1;align=center;rounded=0;sketch=0;strokeColor=#028090;fillColor=#F45B69;fontSize=14;fontColor=#E4FDE1;" parent="1" vertex="1">
          <mxGeometry x="152" y="-213" width="120" height="60" as="geometry" />
        </mxCell>
        <mxCell id="BBe3EE57aWuY_gIeYWjr-20" value="&lt;i&gt;&lt;font style=&quot;font-size: 18px&quot;&gt;Works for&lt;/font&gt;&lt;/i&gt;" style="shape=rhombus;perimeter=rhombusPerimeter;whiteSpace=wrap;html=1;align=center;rounded=0;sketch=0;strokeColor=#028090;fillColor=#F45B69;fontSize=14;fontColor=#E4FDE1;" parent="1" vertex="1">
          <mxGeometry x="630" y="-213" width="120" height="60" as="geometry" />
        </mxCell>
        <mxCell id="BBe3EE57aWuY_gIeYWjr-24" value="" style="shape=link;html=1;rounded=0;shadow=0;strokeColor=#028090;strokeWidth=4;fillColor=#F45B69;fontSize=14;fontColor=#E4FDE1;entryX=1;entryY=0.5;entryDx=0;entryDy=0;exitX=0;exitY=0.5;exitDx=0;exitDy=0;labelBackgroundColor=#114B5F;" parent="1" source="BBe3EE57aWuY_gIeYWjr-3" target="BBe3EE57aWuY_gIeYWjr-19" edge="1">
          <mxGeometry relative="1" as="geometry">
            <mxPoint x="283" y="-21" as="sourcePoint" />
            <mxPoint x="443" y="-21" as="targetPoint" />
          </mxGeometry>
        </mxCell>
        <mxCell id="BBe3EE57aWuY_gIeYWjr-25" value="N" style="resizable=0;html=1;align=right;verticalAlign=bottom;fillColor=#F45B69;strokeColor=#028090;fontColor=#E4FDE1;" parent="BBe3EE57aWuY_gIeYWjr-24" connectable="0" vertex="1">
          <mxGeometry x="1" relative="1" as="geometry" />
        </mxCell>
        <mxCell id="BBe3EE57aWuY_gIeYWjr-26" value="" style="shape=link;html=1;rounded=0;shadow=0;strokeColor=#028090;strokeWidth=4;fillColor=#F45B69;fontSize=14;fontColor=#E4FDE1;entryX=0.5;entryY=0;entryDx=0;entryDy=0;exitX=1;exitY=0.5;exitDx=0;exitDy=0;labelBackgroundColor=#114B5F;" parent="1" source="BBe3EE57aWuY_gIeYWjr-1" target="BBe3EE57aWuY_gIeYWjr-19" edge="1">
          <mxGeometry relative="1" as="geometry">
            <mxPoint x="-42" y="-113" as="sourcePoint" />
            <mxPoint x="118" y="-113" as="targetPoint" />
            <Array as="points">
              <mxPoint x="212" y="-284" />
            </Array>
          </mxGeometry>
        </mxCell>
        <mxCell id="BBe3EE57aWuY_gIeYWjr-27" value="N" style="resizable=0;html=1;align=right;verticalAlign=bottom;fillColor=#F45B69;strokeColor=#028090;fontColor=#E4FDE1;" parent="BBe3EE57aWuY_gIeYWjr-26" connectable="0" vertex="1">
          <mxGeometry x="1" relative="1" as="geometry" />
        </mxCell>
        <mxCell id="BBe3EE57aWuY_gIeYWjr-28" value="" style="shape=link;html=1;rounded=0;shadow=0;strokeColor=#028090;strokeWidth=4;fillColor=#F45B69;fontSize=14;fontColor=#E4FDE1;exitX=0;exitY=0.5;exitDx=0;exitDy=0;entryX=1;entryY=0.5;entryDx=0;entryDy=0;labelBackgroundColor=#114B5F;" parent="1" source="BBe3EE57aWuY_gIeYWjr-4" target="BBe3EE57aWuY_gIeYWjr-20" edge="1">
          <mxGeometry relative="1" as="geometry">
            <mxPoint x="813.5" y="-160" as="sourcePoint" />
            <mxPoint x="696.5" y="-121" as="targetPoint" />
            <Array as="points" />
          </mxGeometry>
        </mxCell>
        <mxCell id="BBe3EE57aWuY_gIeYWjr-29" value="N" style="resizable=0;html=1;align=right;verticalAlign=bottom;fillColor=#F45B69;strokeColor=#028090;fontColor=#E4FDE1;" parent="BBe3EE57aWuY_gIeYWjr-28" connectable="0" vertex="1">
          <mxGeometry x="1" relative="1" as="geometry" />
        </mxCell>
        <mxCell id="BBe3EE57aWuY_gIeYWjr-30" value="" style="shape=link;html=1;rounded=0;shadow=0;strokeColor=#028090;strokeWidth=4;fillColor=#F45B69;fontSize=14;fontColor=#E4FDE1;exitX=1;exitY=0.5;exitDx=0;exitDy=0;entryX=0;entryY=0.5;entryDx=0;entryDy=0;labelBackgroundColor=#114B5F;" parent="1" source="BBe3EE57aWuY_gIeYWjr-3" target="BBe3EE57aWuY_gIeYWjr-20" edge="1">
          <mxGeometry relative="1" as="geometry">
            <mxPoint x="756" y="-85" as="sourcePoint" />
            <mxPoint x="588" y="-133" as="targetPoint" />
            <Array as="points" />
          </mxGeometry>
        </mxCell>
        <mxCell id="BBe3EE57aWuY_gIeYWjr-31" value="1" style="resizable=0;html=1;align=right;verticalAlign=bottom;fillColor=#F45B69;strokeColor=#028090;fontColor=#E4FDE1;" parent="BBe3EE57aWuY_gIeYWjr-30" connectable="0" vertex="1">
          <mxGeometry x="1" relative="1" as="geometry" />
        </mxCell>
        <mxCell id="BBe3EE57aWuY_gIeYWjr-33" value="&lt;i&gt;&lt;font style=&quot;font-size: 18px&quot;&gt;Investement&lt;/font&gt;&lt;/i&gt;" style="whiteSpace=wrap;html=1;align=center;rounded=0;sketch=0;strokeColor=#028090;fillColor=#F45B69;fontSize=14;fontColor=#E4FDE1;" parent="1" vertex="1">
          <mxGeometry x="-335" y="-56" width="100" height="40" as="geometry" />
        </mxCell>
        <mxCell id="BBe3EE57aWuY_gIeYWjr-34" value="&lt;i&gt;&lt;font style=&quot;font-size: 18px&quot;&gt;Loan&lt;/font&gt;&lt;/i&gt;" style="whiteSpace=wrap;html=1;align=center;rounded=0;sketch=0;strokeColor=#028090;fillColor=#F45B69;fontSize=14;fontColor=#E4FDE1;" parent="1" vertex="1">
          <mxGeometry x="-72" y="-56" width="100" height="40" as="geometry" />
        </mxCell>
        <mxCell id="BBe3EE57aWuY_gIeYWjr-35" value="&lt;i&gt;&lt;font style=&quot;font-size: 18px&quot;&gt;Account&lt;/font&gt;&lt;/i&gt;" style="whiteSpace=wrap;html=1;align=center;rounded=0;sketch=0;strokeColor=#028090;fillColor=#F45B69;fontSize=14;fontColor=#E4FDE1;" parent="1" vertex="1">
          <mxGeometry x="162" y="42" width="100" height="40" as="geometry" />
        </mxCell>
        <mxCell id="BBe3EE57aWuY_gIeYWjr-36" value="&lt;i&gt;&lt;font style=&quot;font-size: 18px&quot;&gt;Offer&lt;/font&gt;&lt;br&gt;&lt;/i&gt;" style="shape=rhombus;perimeter=rhombusPerimeter;whiteSpace=wrap;html=1;align=center;rounded=0;sketch=0;strokeColor=#028090;fillColor=#F45B69;fontSize=14;fontColor=#E4FDE1;" parent="1" vertex="1">
          <mxGeometry x="-222.5" y="-160" width="120" height="60" as="geometry" />
        </mxCell>
        <mxCell id="BBe3EE57aWuY_gIeYWjr-37" value="&lt;font style=&quot;font-size: 18px&quot;&gt;Maintain&lt;/font&gt;" style="shape=rhombus;perimeter=rhombusPerimeter;whiteSpace=wrap;html=1;align=center;rounded=0;sketch=0;strokeColor=#028090;fillColor=#F45B69;fontSize=14;fontColor=#E4FDE1;" parent="1" vertex="1">
          <mxGeometry x="152" y="-66" width="120" height="60" as="geometry" />
        </mxCell>
        <mxCell id="BBe3EE57aWuY_gIeYWjr-42" value="" style="shape=link;html=1;rounded=0;shadow=0;strokeColor=#028090;strokeWidth=4;fillColor=#F45B69;fontSize=14;fontColor=#E4FDE1;entryX=0;entryY=0.5;entryDx=0;entryDy=0;labelBackgroundColor=#114B5F;" parent="1" source="BBe3EE57aWuY_gIeYWjr-33" target="BBe3EE57aWuY_gIeYWjr-36" edge="1">
          <mxGeometry relative="1" as="geometry">
            <mxPoint x="-125" y="-58" as="sourcePoint" />
            <mxPoint x="5" y="-98" as="targetPoint" />
            <Array as="points">
              <mxPoint x="-285" y="-130" />
            </Array>
          </mxGeometry>
        </mxCell>
        <mxCell id="BBe3EE57aWuY_gIeYWjr-43" value="N" style="resizable=0;html=1;align=right;verticalAlign=bottom;fillColor=#F45B69;strokeColor=#028090;fontColor=#E4FDE1;" parent="BBe3EE57aWuY_gIeYWjr-42" connectable="0" vertex="1">
          <mxGeometry x="1" relative="1" as="geometry" />
        </mxCell>
        <mxCell id="BBe3EE57aWuY_gIeYWjr-44" value="" style="shape=link;html=1;rounded=0;shadow=0;strokeColor=#028090;strokeWidth=4;fillColor=#F45B69;fontSize=14;fontColor=#E4FDE1;entryX=1;entryY=0.5;entryDx=0;entryDy=0;exitX=0.5;exitY=0;exitDx=0;exitDy=0;labelBackgroundColor=#114B5F;" parent="1" source="BBe3EE57aWuY_gIeYWjr-34" target="BBe3EE57aWuY_gIeYWjr-36" edge="1">
          <mxGeometry relative="1" as="geometry">
            <mxPoint x="71" y="-102" as="sourcePoint" />
            <mxPoint x="231" y="-102" as="targetPoint" />
            <Array as="points">
              <mxPoint x="-22" y="-130" />
            </Array>
          </mxGeometry>
        </mxCell>
        <mxCell id="BBe3EE57aWuY_gIeYWjr-45" value="N" style="resizable=0;html=1;align=right;verticalAlign=bottom;fillColor=#F45B69;strokeColor=#028090;fontColor=#E4FDE1;" parent="BBe3EE57aWuY_gIeYWjr-44" connectable="0" vertex="1">
          <mxGeometry x="1" relative="1" as="geometry" />
        </mxCell>
        <mxCell id="BBe3EE57aWuY_gIeYWjr-51" value="" style="endArrow=none;html=1;rounded=0;shadow=0;strokeColor=#028090;strokeWidth=4;fillColor=#F45B69;fontSize=14;fontColor=#E4FDE1;entryX=0.5;entryY=0;entryDx=0;entryDy=0;labelBackgroundColor=#114B5F;" parent="1" source="BBe3EE57aWuY_gIeYWjr-1" target="BBe3EE57aWuY_gIeYWjr-36" edge="1">
          <mxGeometry relative="1" as="geometry">
            <mxPoint x="-21" y="-178" as="sourcePoint" />
            <mxPoint x="139" y="-178" as="targetPoint" />
          </mxGeometry>
        </mxCell>
        <mxCell id="BBe3EE57aWuY_gIeYWjr-52" value="1" style="resizable=0;html=1;align=right;verticalAlign=bottom;fillColor=#F45B69;strokeColor=#028090;fontColor=#E4FDE1;" parent="BBe3EE57aWuY_gIeYWjr-51" connectable="0" vertex="1">
          <mxGeometry x="1" relative="1" as="geometry" />
        </mxCell>
        <mxCell id="BBe3EE57aWuY_gIeYWjr-55" value="" style="endArrow=none;html=1;rounded=0;shadow=0;strokeColor=#028090;strokeWidth=4;fillColor=#F45B69;fontSize=14;fontColor=#E4FDE1;entryX=0.5;entryY=0;entryDx=0;entryDy=0;exitX=0.848;exitY=1;exitDx=0;exitDy=0;exitPerimeter=0;labelBackgroundColor=#114B5F;" parent="1" source="BBe3EE57aWuY_gIeYWjr-1" target="BBe3EE57aWuY_gIeYWjr-37" edge="1">
          <mxGeometry relative="1" as="geometry">
            <mxPoint x="73" y="-156" as="sourcePoint" />
            <mxPoint x="233" y="-156" as="targetPoint" />
            <Array as="points" />
          </mxGeometry>
        </mxCell>
        <mxCell id="BBe3EE57aWuY_gIeYWjr-56" value="1" style="resizable=0;html=1;align=right;verticalAlign=bottom;fillColor=#F45B69;strokeColor=#028090;fontColor=#E4FDE1;" parent="BBe3EE57aWuY_gIeYWjr-55" connectable="0" vertex="1">
          <mxGeometry x="1" relative="1" as="geometry" />
        </mxCell>
        <mxCell id="BBe3EE57aWuY_gIeYWjr-57" value="" style="shape=link;html=1;rounded=0;shadow=0;strokeColor=#028090;strokeWidth=4;fillColor=#F45B69;fontSize=14;fontColor=#E4FDE1;entryX=0.5;entryY=1;entryDx=0;entryDy=0;exitX=0.5;exitY=0;exitDx=0;exitDy=0;labelBackgroundColor=#114B5F;" parent="1" source="BBe3EE57aWuY_gIeYWjr-35" target="BBe3EE57aWuY_gIeYWjr-37" edge="1">
          <mxGeometry relative="1" as="geometry">
            <mxPoint x="191" y="12" as="sourcePoint" />
            <mxPoint x="351" y="12" as="targetPoint" />
          </mxGeometry>
        </mxCell>
        <mxCell id="BBe3EE57aWuY_gIeYWjr-58" value="N" style="resizable=0;html=1;align=right;verticalAlign=bottom;fillColor=#F45B69;strokeColor=#028090;fontColor=#E4FDE1;" parent="BBe3EE57aWuY_gIeYWjr-57" connectable="0" vertex="1">
          <mxGeometry x="1" relative="1" as="geometry" />
        </mxCell>
        <mxCell id="BBe3EE57aWuY_gIeYWjr-59" value="&lt;i&gt;&lt;font style=&quot;font-size: 18px&quot;&gt;Taken By&lt;/font&gt;&lt;/i&gt;" style="shape=rhombus;perimeter=rhombusPerimeter;whiteSpace=wrap;html=1;align=center;rounded=0;sketch=0;strokeColor=#028090;fillColor=#F45B69;fontSize=14;fontColor=#E4FDE1;" parent="1" vertex="1">
          <mxGeometry x="-230" y="80" width="120" height="60" as="geometry" />
        </mxCell>
        <mxCell id="BBe3EE57aWuY_gIeYWjr-60" value="&lt;i&gt;&lt;font style=&quot;font-size: 18px&quot;&gt;Hold by&lt;/font&gt;&lt;br&gt;&lt;/i&gt;" style="shape=rhombus;perimeter=rhombusPerimeter;whiteSpace=wrap;html=1;align=center;rounded=0;sketch=0;strokeColor=#028090;fillColor=#F45B69;fontSize=14;fontColor=#E4FDE1;" parent="1" vertex="1">
          <mxGeometry x="152" y="135" width="120" height="60" as="geometry" />
        </mxCell>
        <mxCell id="BBe3EE57aWuY_gIeYWjr-61" value="" style="shape=link;html=1;rounded=0;shadow=0;strokeColor=#028090;strokeWidth=4;fillColor=#F45B69;fontSize=14;fontColor=#E4FDE1;entryX=0;entryY=0.5;entryDx=0;entryDy=0;exitX=0.5;exitY=1;exitDx=0;exitDy=0;labelBackgroundColor=#114B5F;" parent="1" source="BBe3EE57aWuY_gIeYWjr-33" target="BBe3EE57aWuY_gIeYWjr-59" edge="1">
          <mxGeometry relative="1" as="geometry">
            <mxPoint x="-149" y="45" as="sourcePoint" />
            <mxPoint x="11" y="45" as="targetPoint" />
            <Array as="points">
              <mxPoint x="-285" y="110" />
            </Array>
          </mxGeometry>
        </mxCell>
        <mxCell id="BBe3EE57aWuY_gIeYWjr-62" value="N" style="resizable=0;html=1;align=right;verticalAlign=bottom;fillColor=#F45B69;strokeColor=#028090;fontColor=#E4FDE1;" parent="BBe3EE57aWuY_gIeYWjr-61" connectable="0" vertex="1">
          <mxGeometry x="1" relative="1" as="geometry" />
        </mxCell>
        <mxCell id="BBe3EE57aWuY_gIeYWjr-63" value="" style="shape=link;html=1;rounded=0;shadow=0;strokeColor=#028090;strokeWidth=4;fillColor=#F45B69;fontSize=14;fontColor=#E4FDE1;entryX=1;entryY=0.5;entryDx=0;entryDy=0;labelBackgroundColor=#114B5F;" parent="1" source="BBe3EE57aWuY_gIeYWjr-34" target="BBe3EE57aWuY_gIeYWjr-59" edge="1">
          <mxGeometry relative="1" as="geometry">
            <mxPoint x="10" y="78" as="sourcePoint" />
            <mxPoint x="170" y="78" as="targetPoint" />
            <Array as="points">
              <mxPoint x="-19" y="110" />
            </Array>
          </mxGeometry>
        </mxCell>
        <mxCell id="BBe3EE57aWuY_gIeYWjr-64" value="N" style="resizable=0;html=1;align=right;verticalAlign=bottom;fillColor=#F45B69;strokeColor=#028090;fontColor=#E4FDE1;" parent="BBe3EE57aWuY_gIeYWjr-63" connectable="0" vertex="1">
          <mxGeometry x="1" relative="1" as="geometry" />
        </mxCell>
        <mxCell id="BBe3EE57aWuY_gIeYWjr-69" value="&lt;i&gt;&lt;font size=&quot;1&quot;&gt;&lt;b style=&quot;font-size: 18px&quot;&gt;Customer&lt;/b&gt;&lt;/font&gt;&lt;/i&gt;" style="whiteSpace=wrap;html=1;align=center;rounded=0;sketch=0;strokeColor=#028090;fillColor=#F45B69;fontSize=14;fontColor=#E4FDE1;" parent="1" vertex="1">
          <mxGeometry x="2" y="264" width="118" height="57" as="geometry" />
        </mxCell>
        <mxCell id="BBe3EE57aWuY_gIeYWjr-70" value="" style="shape=link;html=1;rounded=0;shadow=0;strokeColor=#028090;strokeWidth=4;fillColor=#F45B69;fontSize=14;fontColor=#E4FDE1;exitX=0.5;exitY=1;exitDx=0;exitDy=0;entryX=0.5;entryY=0;entryDx=0;entryDy=0;labelBackgroundColor=#114B5F;" parent="1" source="BBe3EE57aWuY_gIeYWjr-35" target="BBe3EE57aWuY_gIeYWjr-60" edge="1">
          <mxGeometry relative="1" as="geometry">
            <mxPoint x="159" y="274" as="sourcePoint" />
            <mxPoint x="280" y="247" as="targetPoint" />
            <Array as="points" />
          </mxGeometry>
        </mxCell>
        <mxCell id="BBe3EE57aWuY_gIeYWjr-71" value="N" style="resizable=0;html=1;align=right;verticalAlign=bottom;direction=north;fillColor=#F45B69;strokeColor=#028090;fontColor=#E4FDE1;" parent="BBe3EE57aWuY_gIeYWjr-70" connectable="0" vertex="1">
          <mxGeometry x="1" relative="1" as="geometry" />
        </mxCell>
        <mxCell id="BBe3EE57aWuY_gIeYWjr-72" value="" style="endArrow=none;html=1;rounded=0;shadow=0;strokeColor=#028090;strokeWidth=4;fillColor=#F45B69;fontSize=14;fontColor=#E4FDE1;entryX=0.5;entryY=1;entryDx=0;entryDy=0;exitX=0;exitY=0.5;exitDx=0;exitDy=0;labelBackgroundColor=#114B5F;" parent="1" source="BBe3EE57aWuY_gIeYWjr-69" target="BBe3EE57aWuY_gIeYWjr-59" edge="1">
          <mxGeometry relative="1" as="geometry">
            <mxPoint x="-180" y="245" as="sourcePoint" />
            <mxPoint x="-20" y="245" as="targetPoint" />
            <Array as="points">
              <mxPoint x="-170" y="293" />
            </Array>
          </mxGeometry>
        </mxCell>
        <mxCell id="BBe3EE57aWuY_gIeYWjr-73" value="N" style="resizable=0;html=1;align=right;verticalAlign=bottom;fillColor=#F45B69;strokeColor=#028090;fontColor=#E4FDE1;" parent="BBe3EE57aWuY_gIeYWjr-72" connectable="0" vertex="1">
          <mxGeometry x="1" relative="1" as="geometry" />
        </mxCell>
        <mxCell id="BBe3EE57aWuY_gIeYWjr-75" value="&lt;font style=&quot;font-size: 16px&quot;&gt;cSSN&lt;/font&gt;" style="ellipse;whiteSpace=wrap;html=1;align=center;fontStyle=4;rounded=0;sketch=0;strokeColor=#028090;fillColor=#F45B69;fontSize=14;fontColor=#E4FDE1;" parent="1" vertex="1">
          <mxGeometry x="-102.5" y="337" width="84" height="37" as="geometry" />
        </mxCell>
        <mxCell id="BBe3EE57aWuY_gIeYWjr-77" value="&lt;font style=&quot;font-size: 16px&quot;&gt;Name&lt;/font&gt;" style="ellipse;whiteSpace=wrap;html=1;align=center;rounded=0;sketch=0;strokeColor=#028090;fillColor=#F45B69;fontSize=14;fontColor=#E4FDE1;" parent="1" vertex="1">
          <mxGeometry x="-14" y="340" width="74.5" height="37" as="geometry" />
        </mxCell>
        <mxCell id="BBe3EE57aWuY_gIeYWjr-80" value="&lt;font style=&quot;font-size: 16px&quot;&gt;Sex&lt;/font&gt;" style="ellipse;whiteSpace=wrap;html=1;align=center;rounded=0;sketch=0;strokeColor=#028090;fillColor=#F45B69;fontSize=14;fontColor=#E4FDE1;" parent="1" vertex="1">
          <mxGeometry x="68" y="379" width="73" height="37" as="geometry" />
        </mxCell>
        <mxCell id="BBe3EE57aWuY_gIeYWjr-81" value="&lt;font style=&quot;font-size: 16px&quot;&gt;Address&lt;/font&gt;" style="ellipse;whiteSpace=wrap;html=1;align=center;rounded=0;sketch=0;strokeColor=#028090;fillColor=#F45B69;fontSize=14;fontColor=#E4FDE1;" parent="1" vertex="1">
          <mxGeometry x="141" y="337" width="73" height="37" as="geometry" />
        </mxCell>
        <mxCell id="BBe3EE57aWuY_gIeYWjr-82" value="" style="endArrow=none;html=1;rounded=0;shadow=0;strokeColor=#028090;strokeWidth=4;fillColor=#F45B69;fontSize=14;fontColor=#E4FDE1;exitX=0.5;exitY=0;exitDx=0;exitDy=0;entryX=0;entryY=1;entryDx=0;entryDy=0;labelBackgroundColor=#114B5F;" parent="1" source="BBe3EE57aWuY_gIeYWjr-75" target="BBe3EE57aWuY_gIeYWjr-69" edge="1">
          <mxGeometry relative="1" as="geometry">
            <mxPoint x="-56" y="325" as="sourcePoint" />
            <mxPoint x="104" y="325" as="targetPoint" />
          </mxGeometry>
        </mxCell>
        <mxCell id="BBe3EE57aWuY_gIeYWjr-83" value="" style="endArrow=none;html=1;rounded=0;shadow=0;strokeColor=#028090;strokeWidth=4;fillColor=#F45B69;fontSize=14;fontColor=#E4FDE1;exitX=0.5;exitY=0;exitDx=0;exitDy=0;entryX=0.25;entryY=1;entryDx=0;entryDy=0;labelBackgroundColor=#114B5F;" parent="1" source="BBe3EE57aWuY_gIeYWjr-77" target="BBe3EE57aWuY_gIeYWjr-69" edge="1">
          <mxGeometry relative="1" as="geometry">
            <mxPoint x="-18.5" y="355.5" as="sourcePoint" />
            <mxPoint x="141.5" y="355.5" as="targetPoint" />
          </mxGeometry>
        </mxCell>
        <mxCell id="BBe3EE57aWuY_gIeYWjr-84" value="" style="endArrow=none;html=1;rounded=0;shadow=0;strokeColor=#028090;strokeWidth=4;fillColor=#F45B69;fontSize=14;fontColor=#E4FDE1;entryX=0.5;entryY=0;entryDx=0;entryDy=0;exitX=0.75;exitY=1;exitDx=0;exitDy=0;labelBackgroundColor=#114B5F;" parent="1" source="BBe3EE57aWuY_gIeYWjr-69" target="BBe3EE57aWuY_gIeYWjr-80" edge="1">
          <mxGeometry relative="1" as="geometry">
            <mxPoint x="65" y="352" as="sourcePoint" />
            <mxPoint x="225" y="352" as="targetPoint" />
          </mxGeometry>
        </mxCell>
        <mxCell id="BBe3EE57aWuY_gIeYWjr-85" value="" style="endArrow=none;html=1;rounded=0;shadow=0;strokeColor=#028090;strokeWidth=4;fillColor=#F45B69;fontSize=14;fontColor=#E4FDE1;exitX=1;exitY=1;exitDx=0;exitDy=0;entryX=0.387;entryY=0.063;entryDx=0;entryDy=0;entryPerimeter=0;labelBackgroundColor=#114B5F;" parent="1" source="BBe3EE57aWuY_gIeYWjr-69" target="BBe3EE57aWuY_gIeYWjr-81" edge="1">
          <mxGeometry relative="1" as="geometry">
            <mxPoint x="147" y="325" as="sourcePoint" />
            <mxPoint x="307" y="325" as="targetPoint" />
          </mxGeometry>
        </mxCell>
        <mxCell id="BBe3EE57aWuY_gIeYWjr-86" value="&lt;span style=&quot;font-size: 16px&quot;&gt;Balance&lt;/span&gt;" style="ellipse;whiteSpace=wrap;html=1;align=center;rounded=0;sketch=0;strokeColor=#028090;fillColor=#F45B69;fontSize=14;fontColor=#E4FDE1;" parent="1" vertex="1">
          <mxGeometry x="9" y="-129" width="73" height="37" as="geometry" />
        </mxCell>
        <mxCell id="BBe3EE57aWuY_gIeYWjr-89" value="" style="endArrow=none;html=1;rounded=0;shadow=0;strokeColor=#028090;strokeWidth=4;fillColor=#F45B69;fontSize=14;fontColor=#E4FDE1;entryX=0.5;entryY=0;entryDx=0;entryDy=0;exitX=1;exitY=1;exitDx=0;exitDy=0;labelBackgroundColor=#114B5F;" parent="1" source="BBe3EE57aWuY_gIeYWjr-34" target="BBe3EE57aWuY_gIeYWjr-92" edge="1">
          <mxGeometry relative="1" as="geometry">
            <mxPoint x="11" y="-5" as="sourcePoint" />
            <mxPoint x="45.50000000000023" y="22" as="targetPoint" />
          </mxGeometry>
        </mxCell>
        <mxCell id="BBe3EE57aWuY_gIeYWjr-90" value="" style="endArrow=none;html=1;rounded=0;shadow=0;strokeColor=#028090;strokeWidth=4;fillColor=#F45B69;fontSize=14;fontColor=#E4FDE1;entryX=0;entryY=0.5;entryDx=0;entryDy=0;labelBackgroundColor=#114B5F;" parent="1" target="IIiABblORkh0VtVI_wg2-2" edge="1">
          <mxGeometry relative="1" as="geometry">
            <mxPoint x="32" y="-35" as="sourcePoint" />
            <mxPoint x="55.99999999999727" y="-34.5" as="targetPoint" />
          </mxGeometry>
        </mxCell>
        <mxCell id="BBe3EE57aWuY_gIeYWjr-91" value="" style="endArrow=none;html=1;rounded=0;shadow=0;strokeColor=#028090;strokeWidth=4;fillColor=#F45B69;fontSize=14;fontColor=#E4FDE1;entryX=0.5;entryY=1;entryDx=0;entryDy=0;exitX=1;exitY=0;exitDx=0;exitDy=0;labelBackgroundColor=#114B5F;" parent="1" source="BBe3EE57aWuY_gIeYWjr-34" target="BBe3EE57aWuY_gIeYWjr-86" edge="1">
          <mxGeometry relative="1" as="geometry">
            <mxPoint x="7" y="-79" as="sourcePoint" />
            <mxPoint x="167" y="-79" as="targetPoint" />
          </mxGeometry>
        </mxCell>
        <mxCell id="BBe3EE57aWuY_gIeYWjr-92" value="&lt;font style=&quot;font-size: 16px&quot;&gt;LoanID&lt;/font&gt;" style="ellipse;whiteSpace=wrap;html=1;align=center;fontStyle=4;rounded=0;sketch=0;strokeColor=#028090;fillColor=#F45B69;fontSize=14;fontColor=#E4FDE1;" parent="1" vertex="1">
          <mxGeometry x="3.5" y="15" width="84" height="37" as="geometry" />
        </mxCell>
        <mxCell id="BBe3EE57aWuY_gIeYWjr-94" value="&lt;span style=&quot;font-size: 16px&quot;&gt;#ofEmp&lt;br&gt;&lt;/span&gt;" style="ellipse;whiteSpace=wrap;html=1;align=center;rounded=0;sketch=0;strokeColor=#028090;fillColor=#F45B69;fontSize=14;fontColor=#E4FDE1;" parent="1" vertex="1">
          <mxGeometry x="262" y="-260" width="73" height="37" as="geometry" />
        </mxCell>
        <mxCell id="BBe3EE57aWuY_gIeYWjr-95" value="" style="endArrow=none;html=1;rounded=0;shadow=0;strokeColor=#028090;strokeWidth=4;fillColor=#F45B69;fontSize=14;fontColor=#E4FDE1;exitX=1;exitY=0;exitDx=0;exitDy=0;entryX=0;entryY=1;entryDx=0;entryDy=0;labelBackgroundColor=#114B5F;" parent="1" source="BBe3EE57aWuY_gIeYWjr-19" target="BBe3EE57aWuY_gIeYWjr-94" edge="1">
          <mxGeometry relative="1" as="geometry">
            <mxPoint x="227" y="-211" as="sourcePoint" />
            <mxPoint x="387" y="-211" as="targetPoint" />
          </mxGeometry>
        </mxCell>
        <mxCell id="BBe3EE57aWuY_gIeYWjr-96" value="&lt;font style=&quot;font-size: 15px&quot;&gt;DepName&lt;/font&gt;" style="ellipse;whiteSpace=wrap;html=1;align=center;rounded=0;sketch=0;strokeColor=#028090;fillColor=#F45B69;fontSize=14;fontColor=#E4FDE1;" parent="1" vertex="1">
          <mxGeometry x="470" y="-124" width="73" height="37" as="geometry" />
        </mxCell>
        <mxCell id="BBe3EE57aWuY_gIeYWjr-98" value="&lt;span style=&quot;font-size: 16px&quot;&gt;DepartID&lt;/span&gt;" style="ellipse;whiteSpace=wrap;html=1;align=center;fontStyle=4;rounded=0;sketch=0;strokeColor=#028090;fillColor=#F45B69;fontSize=14;fontColor=#E4FDE1;" parent="1" vertex="1">
          <mxGeometry x="376" y="-124" width="84" height="37" as="geometry" />
        </mxCell>
        <mxCell id="BBe3EE57aWuY_gIeYWjr-99" value="" style="endArrow=none;html=1;rounded=0;shadow=0;strokeColor=#028090;strokeWidth=4;fillColor=#F45B69;fontSize=14;fontColor=#E4FDE1;entryX=0.5;entryY=0;entryDx=0;entryDy=0;exitX=0.25;exitY=1;exitDx=0;exitDy=0;labelBackgroundColor=#114B5F;" parent="1" source="BBe3EE57aWuY_gIeYWjr-3" target="BBe3EE57aWuY_gIeYWjr-98" edge="1">
          <mxGeometry relative="1" as="geometry">
            <mxPoint x="217" y="-135" as="sourcePoint" />
            <mxPoint x="377" y="-135" as="targetPoint" />
          </mxGeometry>
        </mxCell>
        <mxCell id="BBe3EE57aWuY_gIeYWjr-101" value="" style="endArrow=none;html=1;rounded=0;shadow=0;strokeColor=#028090;strokeWidth=4;fillColor=#F45B69;fontSize=14;fontColor=#E4FDE1;exitX=0.75;exitY=1;exitDx=0;exitDy=0;entryX=0.5;entryY=0;entryDx=0;entryDy=0;labelBackgroundColor=#114B5F;" parent="1" source="BBe3EE57aWuY_gIeYWjr-3" target="BBe3EE57aWuY_gIeYWjr-96" edge="1">
          <mxGeometry relative="1" as="geometry">
            <mxPoint x="469" y="-135" as="sourcePoint" />
            <mxPoint x="629" y="-135" as="targetPoint" />
          </mxGeometry>
        </mxCell>
        <mxCell id="BBe3EE57aWuY_gIeYWjr-103" value="&lt;font style=&quot;font-size: 16px&quot;&gt;Acc_ID&lt;/font&gt;" style="ellipse;whiteSpace=wrap;html=1;align=center;fontStyle=4;rounded=0;sketch=0;strokeColor=#028090;fillColor=#F45B69;fontSize=14;fontColor=#E4FDE1;" parent="1" vertex="1">
          <mxGeometry x="304" y="45" width="84" height="37" as="geometry" />
        </mxCell>
        <mxCell id="BBe3EE57aWuY_gIeYWjr-104" value="&lt;font style=&quot;font-size: 16px&quot;&gt;Balance&lt;/font&gt;" style="ellipse;whiteSpace=wrap;html=1;align=center;rounded=0;sketch=0;strokeColor=#028090;fillColor=#F45B69;fontSize=14;fontColor=#E4FDE1;" parent="1" vertex="1">
          <mxGeometry x="284" y="-9" width="73" height="37" as="geometry" />
        </mxCell>
        <mxCell id="BBe3EE57aWuY_gIeYWjr-105" value="&lt;font style=&quot;font-size: 16px&quot;&gt;Type&lt;/font&gt;" style="ellipse;whiteSpace=wrap;html=1;align=center;rounded=0;sketch=0;strokeColor=#028090;fillColor=#F45B69;fontSize=14;fontColor=#E4FDE1;" parent="1" vertex="1">
          <mxGeometry x="284" y="98" width="73" height="37" as="geometry" />
        </mxCell>
        <mxCell id="BBe3EE57aWuY_gIeYWjr-106" value="" style="endArrow=none;html=1;rounded=0;shadow=0;strokeColor=#028090;strokeWidth=4;fillColor=#F45B69;fontSize=14;fontColor=#E4FDE1;entryX=0;entryY=0.5;entryDx=0;entryDy=0;exitX=1;exitY=0;exitDx=0;exitDy=0;labelBackgroundColor=#114B5F;" parent="1" source="BBe3EE57aWuY_gIeYWjr-35" target="BBe3EE57aWuY_gIeYWjr-104" edge="1">
          <mxGeometry relative="1" as="geometry">
            <mxPoint x="232" y="35" as="sourcePoint" />
            <mxPoint x="392" y="35" as="targetPoint" />
          </mxGeometry>
        </mxCell>
        <mxCell id="BBe3EE57aWuY_gIeYWjr-107" value="" style="endArrow=none;html=1;rounded=0;shadow=0;strokeColor=#028090;strokeWidth=4;fillColor=#F45B69;fontSize=14;fontColor=#E4FDE1;entryX=0;entryY=0.5;entryDx=0;entryDy=0;labelBackgroundColor=#114B5F;" parent="1" target="BBe3EE57aWuY_gIeYWjr-103" edge="1">
          <mxGeometry relative="1" as="geometry">
            <mxPoint x="262" y="64" as="sourcePoint" />
            <mxPoint x="370" y="68" as="targetPoint" />
          </mxGeometry>
        </mxCell>
        <mxCell id="BBe3EE57aWuY_gIeYWjr-108" value="" style="endArrow=none;html=1;rounded=0;shadow=0;strokeColor=#028090;strokeWidth=4;fillColor=#F45B69;fontSize=14;fontColor=#E4FDE1;entryX=0;entryY=0.5;entryDx=0;entryDy=0;exitX=1;exitY=1;exitDx=0;exitDy=0;labelBackgroundColor=#114B5F;" parent="1" source="BBe3EE57aWuY_gIeYWjr-35" target="BBe3EE57aWuY_gIeYWjr-105" edge="1">
          <mxGeometry relative="1" as="geometry">
            <mxPoint x="221" y="102" as="sourcePoint" />
            <mxPoint x="381" y="102" as="targetPoint" />
          </mxGeometry>
        </mxCell>
        <mxCell id="BBe3EE57aWuY_gIeYWjr-109" value="&lt;span style=&quot;font-size: 16px&quot;&gt;start_&lt;br&gt;day&lt;br&gt;&lt;/span&gt;" style="ellipse;whiteSpace=wrap;html=1;align=center;rounded=0;sketch=0;strokeColor=#028090;fillColor=#F45B69;fontSize=14;fontColor=#E4FDE1;" parent="1" vertex="1">
          <mxGeometry x="506" y="-348" width="74" height="38" as="geometry" />
        </mxCell>
        <mxCell id="BBe3EE57aWuY_gIeYWjr-110" value="" style="endArrow=none;html=1;rounded=0;shadow=0;strokeColor=#028090;strokeWidth=4;fillColor=#F45B69;fontSize=14;fontColor=#E4FDE1;exitX=1;exitY=1;exitDx=0;exitDy=0;entryX=0;entryY=0.5;entryDx=0;entryDy=0;labelBackgroundColor=#114B5F;" parent="1" source="BBe3EE57aWuY_gIeYWjr-5" target="BBe3EE57aWuY_gIeYWjr-109" edge="1">
          <mxGeometry relative="1" as="geometry">
            <mxPoint x="454" y="-353" as="sourcePoint" />
            <mxPoint x="614" y="-353" as="targetPoint" />
          </mxGeometry>
        </mxCell>
        <mxCell id="BBe3EE57aWuY_gIeYWjr-111" value="&lt;font style=&quot;font-size: 16px&quot;&gt;Sex&lt;br&gt;&lt;/font&gt;" style="ellipse;whiteSpace=wrap;html=1;align=center;rounded=0;sketch=0;strokeColor=#028090;fillColor=#F45B69;fontSize=14;fontColor=#E4FDE1;" parent="1" vertex="1">
          <mxGeometry x="897.5" y="-428" width="73" height="37" as="geometry" />
        </mxCell>
        <mxCell id="BBe3EE57aWuY_gIeYWjr-113" value="&lt;font style=&quot;font-size: 16px&quot;&gt;Address&lt;br&gt;&lt;/font&gt;" style="ellipse;whiteSpace=wrap;html=1;align=center;rounded=0;sketch=0;strokeColor=#028090;fillColor=#F45B69;fontSize=14;fontColor=#E4FDE1;" parent="1" vertex="1">
          <mxGeometry x="-183" y="-377" width="73" height="37" as="geometry" />
        </mxCell>
        <mxCell id="BBe3EE57aWuY_gIeYWjr-115" value="&lt;font style=&quot;font-size: 16px&quot;&gt;BranchID&lt;/font&gt;" style="ellipse;whiteSpace=wrap;html=1;align=center;fontStyle=4;rounded=0;sketch=0;strokeColor=#028090;fillColor=#F45B69;fontSize=14;fontColor=#E4FDE1;" parent="1" vertex="1">
          <mxGeometry x="-331" y="-363" width="84" height="37" as="geometry" />
        </mxCell>
        <mxCell id="BBe3EE57aWuY_gIeYWjr-116" value="&lt;font style=&quot;font-size: 16px&quot;&gt;Name&lt;/font&gt;" style="ellipse;whiteSpace=wrap;html=1;align=center;rounded=0;sketch=0;strokeColor=#028090;fillColor=#F45B69;fontSize=14;fontColor=#E4FDE1;" parent="1" vertex="1">
          <mxGeometry x="-331" y="-288" width="73" height="37" as="geometry" />
        </mxCell>
        <mxCell id="BBe3EE57aWuY_gIeYWjr-122" value="" style="endArrow=none;html=1;rounded=0;shadow=0;strokeColor=#028090;strokeWidth=4;fillColor=#F45B69;fontSize=14;fontColor=#E4FDE1;entryX=1;entryY=0.5;entryDx=0;entryDy=0;labelBackgroundColor=#114B5F;" parent="1" target="BBe3EE57aWuY_gIeYWjr-115" edge="1">
          <mxGeometry relative="1" as="geometry">
            <mxPoint x="-217" y="-318" as="sourcePoint" />
            <mxPoint x="516.0000000000091" y="-319" as="targetPoint" />
          </mxGeometry>
        </mxCell>
        <mxCell id="BBe3EE57aWuY_gIeYWjr-123" value="" style="endArrow=none;html=1;rounded=0;shadow=0;strokeColor=#028090;strokeWidth=4;fillColor=#F45B69;fontSize=14;fontColor=#E4FDE1;entryX=1;entryY=0.5;entryDx=0;entryDy=0;exitX=0;exitY=0.5;exitDx=0;exitDy=0;labelBackgroundColor=#114B5F;" parent="1" source="BBe3EE57aWuY_gIeYWjr-1" target="BBe3EE57aWuY_gIeYWjr-116" edge="1">
          <mxGeometry relative="1" as="geometry">
            <mxPoint x="-206.99999999999977" y="-308" as="sourcePoint" />
            <mxPoint x="-237.00000000000273" y="-334.5000000000002" as="targetPoint" />
          </mxGeometry>
        </mxCell>
        <mxCell id="BBe3EE57aWuY_gIeYWjr-124" value="" style="endArrow=none;html=1;rounded=0;shadow=0;strokeColor=#028090;strokeWidth=4;fillColor=#F45B69;fontSize=14;fontColor=#E4FDE1;entryX=0.5;entryY=0;entryDx=0;entryDy=0;exitX=0.5;exitY=1;exitDx=0;exitDy=0;labelBackgroundColor=#114B5F;" parent="1" source="BBe3EE57aWuY_gIeYWjr-113" target="BBe3EE57aWuY_gIeYWjr-1" edge="1">
          <mxGeometry relative="1" as="geometry">
            <mxPoint x="-196.99999999999977" y="-298" as="sourcePoint" />
            <mxPoint x="-227.00000000000273" y="-324.5000000000002" as="targetPoint" />
          </mxGeometry>
        </mxCell>
        <mxCell id="BBe3EE57aWuY_gIeYWjr-126" value="&lt;font style=&quot;font-size: 16px&quot;&gt;InvestID&lt;/font&gt;" style="ellipse;whiteSpace=wrap;html=1;align=center;fontStyle=4;rounded=0;sketch=0;strokeColor=#028090;fillColor=#F45B69;fontSize=14;fontColor=#E4FDE1;" parent="1" vertex="1">
          <mxGeometry x="-434" y="15" width="84" height="37" as="geometry" />
        </mxCell>
        <mxCell id="BBe3EE57aWuY_gIeYWjr-129" value="&lt;span style=&quot;font-size: 16px&quot;&gt;Balance&lt;/span&gt;" style="ellipse;whiteSpace=wrap;html=1;align=center;rounded=0;sketch=0;strokeColor=#028090;fillColor=#F45B69;fontSize=14;fontColor=#E4FDE1;" parent="1" vertex="1">
          <mxGeometry x="-428.5" y="-131" width="73" height="37" as="geometry" />
        </mxCell>
        <mxCell id="BBe3EE57aWuY_gIeYWjr-130" value="" style="endArrow=none;html=1;rounded=0;shadow=0;strokeColor=#028090;strokeWidth=4;fillColor=#F45B69;fontSize=14;fontColor=#E4FDE1;entryX=1;entryY=0.5;entryDx=0;entryDy=0;exitX=0;exitY=0.5;exitDx=0;exitDy=0;labelBackgroundColor=#114B5F;" parent="1" source="BBe3EE57aWuY_gIeYWjr-33" target="IIiABblORkh0VtVI_wg2-1" edge="1">
          <mxGeometry relative="1" as="geometry">
            <mxPoint x="-205" y="-274" as="sourcePoint" />
            <mxPoint x="-379.99999999999727" y="-34.5" as="targetPoint" />
          </mxGeometry>
        </mxCell>
        <mxCell id="BBe3EE57aWuY_gIeYWjr-131" value="" style="endArrow=none;html=1;rounded=0;shadow=0;strokeColor=#028090;strokeWidth=4;fillColor=#F45B69;fontSize=14;fontColor=#E4FDE1;entryX=1;entryY=0.5;entryDx=0;entryDy=0;exitX=0;exitY=1;exitDx=0;exitDy=0;labelBackgroundColor=#114B5F;" parent="1" source="BBe3EE57aWuY_gIeYWjr-33" target="BBe3EE57aWuY_gIeYWjr-126" edge="1">
          <mxGeometry relative="1" as="geometry">
            <mxPoint x="-195" y="-264" as="sourcePoint" />
            <mxPoint x="-237.99999999999773" y="-249.50000000000023" as="targetPoint" />
          </mxGeometry>
        </mxCell>
        <mxCell id="BBe3EE57aWuY_gIeYWjr-132" value="" style="endArrow=none;html=1;rounded=0;shadow=0;strokeColor=#028090;strokeWidth=4;fillColor=#F45B69;fontSize=14;fontColor=#E4FDE1;entryX=1;entryY=0.5;entryDx=0;entryDy=0;exitX=0;exitY=0;exitDx=0;exitDy=0;labelBackgroundColor=#114B5F;" parent="1" source="BBe3EE57aWuY_gIeYWjr-33" target="BBe3EE57aWuY_gIeYWjr-129" edge="1">
          <mxGeometry relative="1" as="geometry">
            <mxPoint x="-185" y="-254" as="sourcePoint" />
            <mxPoint x="-227.99999999999773" y="-239.50000000000023" as="targetPoint" />
          </mxGeometry>
        </mxCell>
        <mxCell id="BBe3EE57aWuY_gIeYWjr-133" value="&lt;i&gt;&lt;font style=&quot;font-size: 18px&quot;&gt;ATM&lt;br&gt;&lt;/font&gt;&lt;/i&gt;" style="whiteSpace=wrap;html=1;align=center;rounded=0;sketch=0;strokeColor=#028090;fillColor=#F45B69;fontSize=14;fontColor=#E4FDE1;" parent="1" vertex="1">
          <mxGeometry x="-397" y="272.5" width="100" height="40" as="geometry" />
        </mxCell>
        <mxCell id="BBe3EE57aWuY_gIeYWjr-134" value="&lt;i&gt;&lt;font style=&quot;font-size: 18px&quot;&gt;Card&lt;/font&gt;&lt;/i&gt;" style="whiteSpace=wrap;html=1;align=center;rounded=0;sketch=0;strokeColor=#028090;fillColor=#F45B69;fontSize=14;fontColor=#E4FDE1;" parent="1" vertex="1">
          <mxGeometry x="664" y="258" width="100" height="40" as="geometry" />
        </mxCell>
        <mxCell id="BBe3EE57aWuY_gIeYWjr-135" value="&lt;i&gt;&lt;font style=&quot;font-size: 18px&quot;&gt;Has&lt;/font&gt;&lt;/i&gt;" style="shape=rhombus;perimeter=rhombusPerimeter;whiteSpace=wrap;html=1;align=center;rounded=0;sketch=0;strokeColor=#028090;fillColor=#F45B69;fontSize=14;fontColor=#E4FDE1;" parent="1" vertex="1">
          <mxGeometry x="-534" y="80" width="120" height="60" as="geometry" />
        </mxCell>
        <mxCell id="BBe3EE57aWuY_gIeYWjr-142" value="" style="shape=link;html=1;rounded=0;strokeColor=#028090;fillColor=#F45B69;fontColor=#E4FDE1;entryX=0.5;entryY=1;entryDx=0;entryDy=0;exitX=0;exitY=0;exitDx=0;exitDy=0;startSize=6;endSize=6;strokeWidth=4;labelBackgroundColor=#114B5F;" parent="1" source="BBe3EE57aWuY_gIeYWjr-133" target="BBe3EE57aWuY_gIeYWjr-135" edge="1">
          <mxGeometry relative="1" as="geometry">
            <mxPoint x="-503" y="209" as="sourcePoint" />
            <mxPoint x="-343" y="209" as="targetPoint" />
          </mxGeometry>
        </mxCell>
        <mxCell id="BBe3EE57aWuY_gIeYWjr-143" value="N" style="resizable=0;html=1;align=right;verticalAlign=bottom;fillColor=#F45B69;strokeColor=#028090;fontColor=#E4FDE1;" parent="BBe3EE57aWuY_gIeYWjr-142" connectable="0" vertex="1">
          <mxGeometry x="1" relative="1" as="geometry" />
        </mxCell>
        <mxCell id="BBe3EE57aWuY_gIeYWjr-144" value="" style="endArrow=none;html=1;rounded=0;strokeColor=#028090;strokeWidth=4;fillColor=#F45B69;fontColor=#E4FDE1;entryX=0.5;entryY=0;entryDx=0;entryDy=0;exitX=0;exitY=1;exitDx=0;exitDy=0;labelBackgroundColor=#114B5F;" parent="1" source="BBe3EE57aWuY_gIeYWjr-1" target="BBe3EE57aWuY_gIeYWjr-135" edge="1">
          <mxGeometry relative="1" as="geometry">
            <mxPoint x="-495" y="-183" as="sourcePoint" />
            <mxPoint x="-335" y="-183" as="targetPoint" />
            <Array as="points">
              <mxPoint x="-473" y="-156" />
            </Array>
          </mxGeometry>
        </mxCell>
        <mxCell id="BBe3EE57aWuY_gIeYWjr-145" value="1" style="resizable=0;html=1;align=right;verticalAlign=bottom;direction=south;fillColor=#F45B69;strokeColor=#028090;fontColor=#E4FDE1;" parent="BBe3EE57aWuY_gIeYWjr-144" connectable="0" vertex="1">
          <mxGeometry x="1" relative="1" as="geometry" />
        </mxCell>
        <mxCell id="BBe3EE57aWuY_gIeYWjr-146" value="&lt;i&gt;&lt;font style=&quot;font-size: 18px&quot;&gt;Deal with&lt;/font&gt;&lt;/i&gt;" style="shape=rhombus;perimeter=rhombusPerimeter;whiteSpace=wrap;html=1;align=center;rounded=0;sketch=0;strokeColor=#028090;fillColor=#F45B69;fontSize=14;fontColor=#E4FDE1;" parent="1" vertex="1">
          <mxGeometry x="326" y="406" width="120" height="60" as="geometry" />
        </mxCell>
        <mxCell id="BBe3EE57aWuY_gIeYWjr-147" value="" style="endArrow=none;html=1;rounded=0;strokeColor=#028090;strokeWidth=4;fillColor=#F45B69;fontColor=#E4FDE1;entryX=0;entryY=0.5;entryDx=0;entryDy=0;exitX=0.5;exitY=1;exitDx=0;exitDy=0;labelBackgroundColor=#114B5F;" parent="1" source="BBe3EE57aWuY_gIeYWjr-133" target="BBe3EE57aWuY_gIeYWjr-146" edge="1">
          <mxGeometry relative="1" as="geometry">
            <mxPoint x="70" y="442" as="sourcePoint" />
            <mxPoint x="230" y="442" as="targetPoint" />
            <Array as="points">
              <mxPoint x="-347" y="436" />
            </Array>
          </mxGeometry>
        </mxCell>
        <mxCell id="BBe3EE57aWuY_gIeYWjr-148" value="N" style="resizable=0;html=1;align=right;verticalAlign=bottom;fillColor=#F45B69;strokeColor=#028090;fontColor=#E4FDE1;" parent="BBe3EE57aWuY_gIeYWjr-147" connectable="0" vertex="1">
          <mxGeometry x="1" relative="1" as="geometry" />
        </mxCell>
        <mxCell id="BBe3EE57aWuY_gIeYWjr-149" value="" style="endArrow=none;html=1;rounded=0;strokeColor=#028090;strokeWidth=4;fillColor=#F45B69;fontColor=#E4FDE1;entryX=1;entryY=0.5;entryDx=0;entryDy=0;exitX=0.5;exitY=1;exitDx=0;exitDy=0;labelBackgroundColor=#114B5F;" parent="1" source="BBe3EE57aWuY_gIeYWjr-134" target="BBe3EE57aWuY_gIeYWjr-146" edge="1">
          <mxGeometry relative="1" as="geometry">
            <mxPoint x="553" y="418" as="sourcePoint" />
            <mxPoint x="713" y="418" as="targetPoint" />
            <Array as="points">
              <mxPoint x="713" y="436" />
            </Array>
          </mxGeometry>
        </mxCell>
        <mxCell id="BBe3EE57aWuY_gIeYWjr-150" value="N" style="resizable=0;html=1;align=right;verticalAlign=bottom;fillColor=#F45B69;strokeColor=#028090;fontColor=#E4FDE1;" parent="BBe3EE57aWuY_gIeYWjr-149" connectable="0" vertex="1">
          <mxGeometry x="1" relative="1" as="geometry" />
        </mxCell>
        <mxCell id="BBe3EE57aWuY_gIeYWjr-151" value="&lt;font style=&quot;font-size: 16px&quot;&gt;Inquiry&lt;/font&gt;" style="ellipse;whiteSpace=wrap;html=1;align=center;rounded=0;sketch=0;strokeColor=#028090;fillColor=#F45B69;fontSize=14;fontColor=#E4FDE1;" parent="1" vertex="1">
          <mxGeometry x="474" y="351" width="73" height="37" as="geometry" />
        </mxCell>
        <mxCell id="BBe3EE57aWuY_gIeYWjr-152" value="&lt;font style=&quot;font-size: 16px&quot;&gt;Withdraw&lt;/font&gt;" style="ellipse;whiteSpace=wrap;html=1;align=center;rounded=0;sketch=0;strokeColor=#028090;fillColor=#F45B69;fontSize=14;fontColor=#E4FDE1;" parent="1" vertex="1">
          <mxGeometry x="373" y="347" width="73" height="37" as="geometry" />
        </mxCell>
        <mxCell id="BBe3EE57aWuY_gIeYWjr-153" value="&lt;font style=&quot;font-size: 16px&quot;&gt;Deposit&lt;/font&gt;" style="ellipse;whiteSpace=wrap;html=1;align=center;rounded=0;sketch=0;strokeColor=#028090;fillColor=#F45B69;fontSize=14;fontColor=#E4FDE1;" parent="1" vertex="1">
          <mxGeometry x="267" y="351" width="73" height="37" as="geometry" />
        </mxCell>
        <mxCell id="BBe3EE57aWuY_gIeYWjr-154" value="" style="endArrow=none;html=1;rounded=0;shadow=0;strokeColor=#028090;strokeWidth=4;fillColor=#F45B69;fontSize=14;fontColor=#E4FDE1;entryX=1;entryY=0;entryDx=0;entryDy=0;exitX=0.5;exitY=1;exitDx=0;exitDy=0;labelBackgroundColor=#114B5F;" parent="1" source="BBe3EE57aWuY_gIeYWjr-151" target="BBe3EE57aWuY_gIeYWjr-146" edge="1">
          <mxGeometry relative="1" as="geometry">
            <mxPoint x="100.5" y="331" as="sourcePoint" />
            <mxPoint x="114.5" y="389" as="targetPoint" />
          </mxGeometry>
        </mxCell>
        <mxCell id="BBe3EE57aWuY_gIeYWjr-155" value="" style="endArrow=none;html=1;rounded=0;shadow=0;strokeColor=#028090;strokeWidth=4;fillColor=#F45B69;fontSize=14;fontColor=#E4FDE1;entryX=0.5;entryY=0;entryDx=0;entryDy=0;exitX=0.5;exitY=1;exitDx=0;exitDy=0;labelBackgroundColor=#114B5F;" parent="1" source="BBe3EE57aWuY_gIeYWjr-152" target="BBe3EE57aWuY_gIeYWjr-146" edge="1">
          <mxGeometry relative="1" as="geometry">
            <mxPoint x="110.5" y="341" as="sourcePoint" />
            <mxPoint x="124.5" y="399" as="targetPoint" />
          </mxGeometry>
        </mxCell>
        <mxCell id="BBe3EE57aWuY_gIeYWjr-156" value="" style="endArrow=none;html=1;rounded=0;shadow=0;strokeColor=#028090;strokeWidth=4;fillColor=#F45B69;fontSize=14;fontColor=#E4FDE1;entryX=0.5;entryY=1;entryDx=0;entryDy=0;labelBackgroundColor=#114B5F;" parent="1" source="BBe3EE57aWuY_gIeYWjr-146" target="BBe3EE57aWuY_gIeYWjr-153" edge="1">
          <mxGeometry relative="1" as="geometry">
            <mxPoint x="120.5" y="351" as="sourcePoint" />
            <mxPoint x="134.5" y="409" as="targetPoint" />
          </mxGeometry>
        </mxCell>
        <mxCell id="BBe3EE57aWuY_gIeYWjr-157" value="&lt;i&gt;&lt;font style=&quot;font-size: 18px&quot;&gt;Has&lt;/font&gt;&lt;/i&gt;" style="shape=rhombus;perimeter=rhombusPerimeter;whiteSpace=wrap;html=1;align=center;rounded=0;sketch=0;strokeColor=#028090;fillColor=#F45B69;fontSize=14;fontColor=#E4FDE1;" parent="1" vertex="1">
          <mxGeometry x="347" y="248" width="120" height="60" as="geometry" />
        </mxCell>
        <mxCell id="BBe3EE57aWuY_gIeYWjr-158" value="" style="shape=link;html=1;rounded=0;startSize=6;endSize=6;strokeColor=#028090;strokeWidth=4;fillColor=#F45B69;fontColor=#E4FDE1;entryX=1;entryY=0.5;entryDx=0;entryDy=0;exitX=0;exitY=0.5;exitDx=0;exitDy=0;labelBackgroundColor=#114B5F;" parent="1" source="BBe3EE57aWuY_gIeYWjr-134" target="BBe3EE57aWuY_gIeYWjr-157" edge="1">
          <mxGeometry relative="1" as="geometry">
            <mxPoint x="512" y="251" as="sourcePoint" />
            <mxPoint x="672" y="251" as="targetPoint" />
          </mxGeometry>
        </mxCell>
        <mxCell id="BBe3EE57aWuY_gIeYWjr-159" value="N" style="resizable=0;html=1;align=right;verticalAlign=bottom;fillColor=#F45B69;strokeColor=#028090;fontColor=#E4FDE1;" parent="BBe3EE57aWuY_gIeYWjr-158" connectable="0" vertex="1">
          <mxGeometry x="1" relative="1" as="geometry" />
        </mxCell>
        <mxCell id="BBe3EE57aWuY_gIeYWjr-160" value="" style="endArrow=none;html=1;rounded=0;strokeColor=#028090;strokeWidth=4;fillColor=#F45B69;fontColor=#E4FDE1;entryX=0;entryY=0.5;entryDx=0;entryDy=0;exitX=1;exitY=0.5;exitDx=0;exitDy=0;labelBackgroundColor=#114B5F;" parent="1" source="BBe3EE57aWuY_gIeYWjr-69" target="BBe3EE57aWuY_gIeYWjr-157" edge="1">
          <mxGeometry relative="1" as="geometry">
            <mxPoint x="189" y="241" as="sourcePoint" />
            <mxPoint x="349" y="241" as="targetPoint" />
          </mxGeometry>
        </mxCell>
        <mxCell id="BBe3EE57aWuY_gIeYWjr-161" value="1" style="resizable=0;html=1;align=right;verticalAlign=bottom;fillColor=#F45B69;strokeColor=#028090;fontColor=#E4FDE1;" parent="BBe3EE57aWuY_gIeYWjr-160" connectable="0" vertex="1">
          <mxGeometry x="1" relative="1" as="geometry" />
        </mxCell>
        <mxCell id="BBe3EE57aWuY_gIeYWjr-163" value="&lt;i&gt;&lt;font style=&quot;font-size: 18px&quot;&gt;Emp_acc&lt;/font&gt;&lt;/i&gt;" style="whiteSpace=wrap;html=1;align=center;rounded=0;sketch=0;strokeColor=#028090;fillColor=#F45B69;fontSize=14;fontColor=#E4FDE1;" parent="1" vertex="1">
          <mxGeometry x="627" y="18" width="100" height="40" as="geometry" />
        </mxCell>
        <mxCell id="BBe3EE57aWuY_gIeYWjr-165" value="&lt;i&gt;&lt;font style=&quot;font-size: 18px&quot;&gt;Has&lt;/font&gt;&lt;/i&gt;" style="shape=rhombus;perimeter=rhombusPerimeter;whiteSpace=wrap;html=1;align=center;rounded=0;sketch=0;strokeColor=#028090;fillColor=#F45B69;fontSize=14;fontColor=#E4FDE1;" parent="1" vertex="1">
          <mxGeometry x="768" y="-113" width="120" height="60" as="geometry" />
        </mxCell>
        <mxCell id="BBe3EE57aWuY_gIeYWjr-172" value="" style="shape=link;html=1;rounded=0;startSize=6;endSize=6;strokeColor=#028090;strokeWidth=4;fillColor=#F45B69;fontColor=#E4FDE1;exitX=0.75;exitY=0;exitDx=0;exitDy=0;labelBackgroundColor=#114B5F;entryX=0;entryY=1;entryDx=0;entryDy=0;" parent="1" source="BBe3EE57aWuY_gIeYWjr-175" target="IIiABblORkh0VtVI_wg2-11" edge="1">
          <mxGeometry relative="1" as="geometry">
            <mxPoint x="873" y="-167" as="sourcePoint" />
            <mxPoint x="1048" y="37" as="targetPoint" />
          </mxGeometry>
        </mxCell>
        <mxCell id="BBe3EE57aWuY_gIeYWjr-173" value="N" style="resizable=0;html=1;align=right;verticalAlign=bottom;fillColor=#F45B69;strokeColor=#028090;fontColor=#E4FDE1;" parent="BBe3EE57aWuY_gIeYWjr-172" connectable="0" vertex="1">
          <mxGeometry x="1" relative="1" as="geometry" />
        </mxCell>
        <mxCell id="BBe3EE57aWuY_gIeYWjr-175" value="&lt;i&gt;&lt;font style=&quot;font-size: 16px&quot;&gt;Dependent&lt;/font&gt;&lt;/i&gt;" style="shape=ext;margin=3;double=1;whiteSpace=wrap;html=1;align=center;rounded=0;sketch=0;strokeColor=#028090;fillColor=#F45B69;fontColor=#E4FDE1;strokeWidth=2;perimeterSpacing=0;" parent="1" vertex="1">
          <mxGeometry x="876" y="174" width="116" height="54" as="geometry" />
        </mxCell>
        <mxCell id="BBe3EE57aWuY_gIeYWjr-179" value="" style="endArrow=none;html=1;rounded=0;strokeColor=#028090;strokeWidth=4;fillColor=#F45B69;fontColor=#E4FDE1;exitX=0.75;exitY=1;exitDx=0;exitDy=0;labelBackgroundColor=#114B5F;" parent="1" source="BBe3EE57aWuY_gIeYWjr-4" edge="1">
          <mxGeometry relative="1" as="geometry">
            <mxPoint x="988" y="-118" as="sourcePoint" />
            <mxPoint x="1061" y="-53" as="targetPoint" />
          </mxGeometry>
        </mxCell>
        <mxCell id="BBe3EE57aWuY_gIeYWjr-180" value="1" style="resizable=0;html=1;align=right;verticalAlign=bottom;fillColor=#F45B69;strokeColor=#028090;fontColor=#E4FDE1;" parent="BBe3EE57aWuY_gIeYWjr-179" connectable="0" vertex="1">
          <mxGeometry x="1" relative="1" as="geometry" />
        </mxCell>
        <mxCell id="BBe3EE57aWuY_gIeYWjr-181" value="&lt;i&gt;&lt;font style=&quot;font-size: 18px&quot;&gt;Supervise&lt;/font&gt;&lt;/i&gt;" style="shape=rhombus;perimeter=rhombusPerimeter;whiteSpace=wrap;html=1;align=center;rounded=0;sketch=0;strokeColor=#028090;fillColor=#F45B69;fontSize=14;fontColor=#E4FDE1;" parent="1" vertex="1">
          <mxGeometry x="1066" y="-315" width="120" height="55" as="geometry" />
        </mxCell>
        <mxCell id="BBe3EE57aWuY_gIeYWjr-182" value="" style="endArrow=none;html=1;rounded=0;strokeColor=#028090;strokeWidth=4;fillColor=#F45B69;fontColor=#E4FDE1;entryX=0.5;entryY=1;entryDx=0;entryDy=0;exitX=1;exitY=1;exitDx=0;exitDy=0;labelBackgroundColor=#114B5F;" parent="1" source="BBe3EE57aWuY_gIeYWjr-4" target="BBe3EE57aWuY_gIeYWjr-181" edge="1">
          <mxGeometry relative="1" as="geometry">
            <mxPoint x="989" y="-244" as="sourcePoint" />
            <mxPoint x="1120" y="-251" as="targetPoint" />
          </mxGeometry>
        </mxCell>
        <mxCell id="BBe3EE57aWuY_gIeYWjr-183" value="N" style="resizable=0;html=1;align=right;verticalAlign=bottom;fillColor=#F45B69;strokeColor=#028090;fontColor=#E4FDE1;" parent="BBe3EE57aWuY_gIeYWjr-182" connectable="0" vertex="1">
          <mxGeometry x="1" relative="1" as="geometry" />
        </mxCell>
        <mxCell id="BBe3EE57aWuY_gIeYWjr-184" value="" style="endArrow=none;html=1;rounded=0;strokeColor=#028090;strokeWidth=4;fillColor=#F45B69;fontColor=#E4FDE1;entryX=0.5;entryY=0;entryDx=0;entryDy=0;exitX=1;exitY=0;exitDx=0;exitDy=0;labelBackgroundColor=#114B5F;" parent="1" source="BBe3EE57aWuY_gIeYWjr-4" target="BBe3EE57aWuY_gIeYWjr-181" edge="1">
          <mxGeometry relative="1" as="geometry">
            <mxPoint x="909" y="-344" as="sourcePoint" />
            <mxPoint x="1069" y="-344" as="targetPoint" />
          </mxGeometry>
        </mxCell>
        <mxCell id="BBe3EE57aWuY_gIeYWjr-185" value="1" style="resizable=0;html=1;align=right;verticalAlign=bottom;fillColor=#F45B69;strokeColor=#028090;fontColor=#E4FDE1;" parent="BBe3EE57aWuY_gIeYWjr-184" connectable="0" vertex="1">
          <mxGeometry x="1" relative="1" as="geometry" />
        </mxCell>
        <mxCell id="BBe3EE57aWuY_gIeYWjr-187" value="&lt;font style=&quot;font-size: 16px&quot;&gt;Address&lt;br&gt;&lt;/font&gt;" style="ellipse;whiteSpace=wrap;html=1;align=center;rounded=0;sketch=0;strokeColor=#028090;fillColor=#F45B69;fontSize=14;fontColor=#E4FDE1;" parent="1" vertex="1">
          <mxGeometry x="970.5" y="-421" width="73" height="37" as="geometry" />
        </mxCell>
        <mxCell id="BBe3EE57aWuY_gIeYWjr-188" value="&lt;font style=&quot;font-size: 16px&quot;&gt;Name&lt;br&gt;&lt;/font&gt;" style="ellipse;whiteSpace=wrap;html=1;align=center;rounded=0;sketch=0;strokeColor=#028090;fillColor=#F45B69;fontSize=14;fontColor=#E4FDE1;" parent="1" vertex="1">
          <mxGeometry x="734" y="-410" width="73" height="38" as="geometry" />
        </mxCell>
        <mxCell id="BBe3EE57aWuY_gIeYWjr-190" value="&lt;font style=&quot;font-size: 16px&quot;&gt;eSSN&lt;/font&gt;" style="ellipse;whiteSpace=wrap;html=1;align=center;fontStyle=4;rounded=0;sketch=0;strokeColor=#028090;fillColor=#F45B69;fontSize=14;fontColor=#E4FDE1;" parent="1" vertex="1">
          <mxGeometry x="813.5" y="-419" width="84" height="37" as="geometry" />
        </mxCell>
        <mxCell id="BBe3EE57aWuY_gIeYWjr-191" value="" style="endArrow=none;html=1;rounded=0;strokeColor=#028090;strokeWidth=4;fillColor=#F45B69;fontColor=#E4FDE1;exitX=0.617;exitY=1.009;exitDx=0;exitDy=0;exitPerimeter=0;entryX=0.25;entryY=0;entryDx=0;entryDy=0;labelBackgroundColor=#114B5F;" parent="1" source="BBe3EE57aWuY_gIeYWjr-190" target="BBe3EE57aWuY_gIeYWjr-4" edge="1">
          <mxGeometry relative="1" as="geometry">
            <mxPoint x="901" y="-341" as="sourcePoint" />
            <mxPoint x="1061" y="-341" as="targetPoint" />
          </mxGeometry>
        </mxCell>
        <mxCell id="BBe3EE57aWuY_gIeYWjr-192" value="" style="endArrow=none;html=1;rounded=0;strokeColor=#028090;strokeWidth=4;fillColor=#F45B69;fontColor=#E4FDE1;exitX=0.75;exitY=0;exitDx=0;exitDy=0;entryX=0.5;entryY=1;entryDx=0;entryDy=0;labelBackgroundColor=#114B5F;" parent="1" source="BBe3EE57aWuY_gIeYWjr-4" target="BBe3EE57aWuY_gIeYWjr-187" edge="1">
          <mxGeometry relative="1" as="geometry">
            <mxPoint x="836.828" y="-340.6669999999999" as="sourcePoint" />
            <mxPoint x="893.25" y="-304" as="targetPoint" />
          </mxGeometry>
        </mxCell>
        <mxCell id="BBe3EE57aWuY_gIeYWjr-193" value="" style="endArrow=none;html=1;rounded=0;strokeColor=#028090;strokeWidth=4;fillColor=#F45B69;fontColor=#E4FDE1;entryX=0.5;entryY=1;entryDx=0;entryDy=0;exitX=0.75;exitY=0;exitDx=0;exitDy=0;labelBackgroundColor=#114B5F;" parent="1" source="BBe3EE57aWuY_gIeYWjr-4" target="BBe3EE57aWuY_gIeYWjr-111" edge="1">
          <mxGeometry relative="1" as="geometry">
            <mxPoint x="921" y="-343" as="sourcePoint" />
            <mxPoint x="903.25" y="-294" as="targetPoint" />
          </mxGeometry>
        </mxCell>
        <mxCell id="BBe3EE57aWuY_gIeYWjr-194" value="" style="endArrow=none;html=1;rounded=0;strokeColor=#028090;strokeWidth=4;fillColor=#F45B69;fontColor=#E4FDE1;exitX=0.5;exitY=1;exitDx=0;exitDy=0;entryX=0.25;entryY=0;entryDx=0;entryDy=0;labelBackgroundColor=#114B5F;" parent="1" source="BBe3EE57aWuY_gIeYWjr-188" target="BBe3EE57aWuY_gIeYWjr-4" edge="1">
          <mxGeometry relative="1" as="geometry">
            <mxPoint x="856.828" y="-320.6669999999999" as="sourcePoint" />
            <mxPoint x="877" y="-361" as="targetPoint" />
          </mxGeometry>
        </mxCell>
        <mxCell id="BBe3EE57aWuY_gIeYWjr-195" value="&lt;span style=&quot;border-bottom: 1px dotted&quot;&gt;&lt;font style=&quot;font-size: 16px&quot;&gt;&lt;i&gt;Name&lt;/i&gt;&lt;/font&gt;&lt;/span&gt;" style="ellipse;whiteSpace=wrap;html=1;align=center;rounded=0;sketch=0;strokeColor=#028090;strokeWidth=2;fillColor=#F45B69;fontColor=#E4FDE1;" parent="1" vertex="1">
          <mxGeometry x="795" y="264" width="78" height="39.5" as="geometry" />
        </mxCell>
        <mxCell id="BBe3EE57aWuY_gIeYWjr-197" value="&lt;font style=&quot;font-size: 16px&quot;&gt;Address&lt;/font&gt;" style="ellipse;whiteSpace=wrap;html=1;align=center;rounded=0;sketch=0;strokeColor=#028090;fillColor=#F45B69;fontSize=14;fontColor=#E4FDE1;" parent="1" vertex="1">
          <mxGeometry x="980" y="310" width="73" height="37" as="geometry" />
        </mxCell>
        <mxCell id="BBe3EE57aWuY_gIeYWjr-198" value="&lt;font style=&quot;font-size: 16px&quot;&gt;Sex&lt;/font&gt;" style="ellipse;whiteSpace=wrap;html=1;align=center;rounded=0;sketch=0;strokeColor=#028090;fillColor=#F45B69;fontSize=14;fontColor=#E4FDE1;" parent="1" vertex="1">
          <mxGeometry x="873" y="312.5" width="73" height="37" as="geometry" />
        </mxCell>
        <mxCell id="BBe3EE57aWuY_gIeYWjr-199" value="" style="endArrow=none;html=1;rounded=0;strokeColor=#028090;strokeWidth=4;fillColor=#F45B69;fontColor=#E4FDE1;entryX=0.5;entryY=0;entryDx=0;entryDy=0;exitX=0;exitY=1;exitDx=0;exitDy=0;labelBackgroundColor=#114B5F;" parent="1" source="BBe3EE57aWuY_gIeYWjr-175" target="BBe3EE57aWuY_gIeYWjr-195" edge="1">
          <mxGeometry relative="1" as="geometry">
            <mxPoint x="693" y="161" as="sourcePoint" />
            <mxPoint x="853" y="161" as="targetPoint" />
          </mxGeometry>
        </mxCell>
        <mxCell id="BBe3EE57aWuY_gIeYWjr-200" value="" style="endArrow=none;html=1;rounded=0;strokeColor=#028090;strokeWidth=4;fillColor=#F45B69;fontColor=#E4FDE1;entryX=0.5;entryY=0;entryDx=0;entryDy=0;exitX=0.75;exitY=1;exitDx=0;exitDy=0;labelBackgroundColor=#114B5F;" parent="1" source="BBe3EE57aWuY_gIeYWjr-175" target="BBe3EE57aWuY_gIeYWjr-197" edge="1">
          <mxGeometry relative="1" as="geometry">
            <mxPoint x="886" y="238.00000000000023" as="sourcePoint" />
            <mxPoint x="844" y="274" as="targetPoint" />
          </mxGeometry>
        </mxCell>
        <mxCell id="BBe3EE57aWuY_gIeYWjr-201" value="" style="endArrow=none;html=1;rounded=0;strokeColor=#028090;strokeWidth=4;fillColor=#F45B69;fontColor=#E4FDE1;entryX=0.5;entryY=0;entryDx=0;entryDy=0;exitX=0.25;exitY=1;exitDx=0;exitDy=0;labelBackgroundColor=#114B5F;" parent="1" source="BBe3EE57aWuY_gIeYWjr-175" target="BBe3EE57aWuY_gIeYWjr-198" edge="1">
          <mxGeometry relative="1" as="geometry">
            <mxPoint x="896" y="248.00000000000023" as="sourcePoint" />
            <mxPoint x="854" y="284" as="targetPoint" />
          </mxGeometry>
        </mxCell>
        <mxCell id="BBe3EE57aWuY_gIeYWjr-202" value="" style="endArrow=none;html=1;rounded=0;strokeColor=#028090;strokeWidth=4;fillColor=#F45B69;fontColor=#E4FDE1;entryX=0;entryY=0;entryDx=0;entryDy=0;exitX=1;exitY=1;exitDx=0;exitDy=0;labelBackgroundColor=#114B5F;" parent="1" source="BBe3EE57aWuY_gIeYWjr-175" target="IIiABblORkh0VtVI_wg2-7" edge="1">
          <mxGeometry relative="1" as="geometry">
            <mxPoint x="906" y="258.0000000000002" as="sourcePoint" />
            <mxPoint x="1043.251146988819" y="263.89112680760854" as="targetPoint" />
          </mxGeometry>
        </mxCell>
        <mxCell id="BBe3EE57aWuY_gIeYWjr-203" value="&lt;font style=&quot;font-size: 16px&quot;&gt;AccNO&lt;/font&gt;" style="ellipse;whiteSpace=wrap;html=1;align=center;fontStyle=4;rounded=0;sketch=0;strokeColor=#028090;fillColor=#F45B69;fontSize=14;fontColor=#E4FDE1;strokeWidth=1;perimeterSpacing=1;" parent="1" vertex="1">
          <mxGeometry x="636" y="98" width="84" height="37" as="geometry" />
        </mxCell>
        <mxCell id="BBe3EE57aWuY_gIeYWjr-206" value="" style="endArrow=none;html=1;rounded=0;strokeColor=#028090;strokeWidth=4;fillColor=#F45B69;fontColor=#E4FDE1;entryX=0.5;entryY=0;entryDx=0;entryDy=0;exitX=0.5;exitY=1;exitDx=0;exitDy=0;labelBackgroundColor=#114B5F;" parent="1" source="BBe3EE57aWuY_gIeYWjr-163" target="BBe3EE57aWuY_gIeYWjr-203" edge="1">
          <mxGeometry relative="1" as="geometry">
            <mxPoint x="504" y="37" as="sourcePoint" />
            <mxPoint x="664" y="37" as="targetPoint" />
          </mxGeometry>
        </mxCell>
        <mxCell id="BBe3EE57aWuY_gIeYWjr-207" value="" style="endArrow=none;html=1;rounded=0;strokeColor=#028090;strokeWidth=4;fillColor=#F45B69;fontColor=#E4FDE1;entryX=0.5;entryY=0;entryDx=0;entryDy=0;exitX=1;exitY=1;exitDx=0;exitDy=0;labelBackgroundColor=#114B5F;" parent="1" source="BBe3EE57aWuY_gIeYWjr-165" target="IIiABblORkh0VtVI_wg2-8" edge="1">
          <mxGeometry relative="1" as="geometry">
            <mxPoint x="712" y="67.99999999999977" as="sourcePoint" />
            <mxPoint x="786.0000000000086" y="39.5" as="targetPoint" />
          </mxGeometry>
        </mxCell>
        <mxCell id="BBe3EE57aWuY_gIeYWjr-208" value="&lt;font style=&quot;font-size: 16px&quot;&gt;Card#&lt;/font&gt;" style="ellipse;whiteSpace=wrap;html=1;align=center;fontStyle=4;rounded=0;sketch=0;strokeColor=#028090;fillColor=#F45B69;fontSize=14;fontColor=#E4FDE1;strokeWidth=1;perimeterSpacing=1;" parent="1" vertex="1">
          <mxGeometry x="739" y="351" width="84" height="37" as="geometry" />
        </mxCell>
        <mxCell id="BBe3EE57aWuY_gIeYWjr-209" value="&lt;span style=&quot;font-size: 16px&quot;&gt;Type&lt;/span&gt;" style="ellipse;whiteSpace=wrap;html=1;align=center;rounded=0;sketch=0;strokeColor=#028090;fillColor=#F45B69;fontSize=14;fontColor=#E4FDE1;" parent="1" vertex="1">
          <mxGeometry x="750" y="174" width="73" height="37" as="geometry" />
        </mxCell>
        <mxCell id="BBe3EE57aWuY_gIeYWjr-210" value="" style="endArrow=none;html=1;rounded=0;strokeColor=#028090;strokeWidth=4;fillColor=#F45B69;fontColor=#E4FDE1;exitX=0.5;exitY=0;exitDx=0;exitDy=0;entryX=0.75;entryY=1;entryDx=0;entryDy=0;labelBackgroundColor=#114B5F;" parent="1" source="BBe3EE57aWuY_gIeYWjr-208" target="BBe3EE57aWuY_gIeYWjr-134" edge="1">
          <mxGeometry relative="1" as="geometry">
            <mxPoint x="516" y="237" as="sourcePoint" />
            <mxPoint x="726" y="311" as="targetPoint" />
          </mxGeometry>
        </mxCell>
        <mxCell id="BBe3EE57aWuY_gIeYWjr-211" value="" style="endArrow=none;html=1;rounded=0;strokeColor=#028090;strokeWidth=4;fillColor=#F45B69;fontColor=#E4FDE1;entryX=0.75;entryY=0;entryDx=0;entryDy=0;exitX=0.281;exitY=0.958;exitDx=0;exitDy=0;exitPerimeter=0;labelBackgroundColor=#114B5F;" parent="1" source="BBe3EE57aWuY_gIeYWjr-209" target="BBe3EE57aWuY_gIeYWjr-134" edge="1">
          <mxGeometry relative="1" as="geometry">
            <mxPoint x="678.967055008517" y="237.48462567064098" as="sourcePoint" />
            <mxPoint x="699" y="268.0000000000002" as="targetPoint" />
          </mxGeometry>
        </mxCell>
        <mxCell id="BBe3EE57aWuY_gIeYWjr-212" value="&lt;font style=&quot;font-size: 16px&quot;&gt;ATM_ID&lt;/font&gt;" style="ellipse;whiteSpace=wrap;html=1;align=center;fontStyle=4;rounded=0;sketch=0;strokeColor=#028090;fillColor=#F45B69;fontSize=14;fontColor=#E4FDE1;" parent="1" vertex="1">
          <mxGeometry x="-470" y="337" width="84" height="37" as="geometry" />
        </mxCell>
        <mxCell id="BBe3EE57aWuY_gIeYWjr-213" value="&lt;span style=&quot;font-size: 16px&quot;&gt;Amount&lt;/span&gt;" style="ellipse;whiteSpace=wrap;html=1;align=center;rounded=0;sketch=0;strokeColor=#028090;fillColor=#F45B69;fontSize=14;fontColor=#E4FDE1;" parent="1" vertex="1">
          <mxGeometry x="-288" y="211" width="73" height="37" as="geometry" />
        </mxCell>
        <mxCell id="BBe3EE57aWuY_gIeYWjr-214" value="&lt;font style=&quot;font-size: 16px&quot;&gt;Address&lt;/font&gt;" style="ellipse;whiteSpace=wrap;html=1;align=center;rounded=0;sketch=0;strokeColor=#028090;fillColor=#F45B69;fontSize=14;fontColor=#E4FDE1;" parent="1" vertex="1">
          <mxGeometry x="-316" y="340" width="73" height="37" as="geometry" />
        </mxCell>
        <mxCell id="BBe3EE57aWuY_gIeYWjr-215" value="" style="endArrow=none;html=1;rounded=0;strokeColor=#028090;strokeWidth=4;fillColor=#F45B69;fontColor=#E4FDE1;entryX=0;entryY=1;entryDx=0;entryDy=0;exitX=1;exitY=0;exitDx=0;exitDy=0;labelBackgroundColor=#114B5F;" parent="1" source="BBe3EE57aWuY_gIeYWjr-133" target="BBe3EE57aWuY_gIeYWjr-213" edge="1">
          <mxGeometry relative="1" as="geometry">
            <mxPoint x="-388" y="168" as="sourcePoint" />
            <mxPoint x="-228" y="168" as="targetPoint" />
          </mxGeometry>
        </mxCell>
        <mxCell id="BBe3EE57aWuY_gIeYWjr-216" value="" style="endArrow=none;html=1;rounded=0;strokeColor=#028090;strokeWidth=4;fillColor=#F45B69;fontColor=#E4FDE1;entryX=0;entryY=1;entryDx=0;entryDy=0;exitX=0.5;exitY=0;exitDx=0;exitDy=0;labelBackgroundColor=#114B5F;" parent="1" source="BBe3EE57aWuY_gIeYWjr-212" target="BBe3EE57aWuY_gIeYWjr-133" edge="1">
          <mxGeometry relative="1" as="geometry">
            <mxPoint x="-287.00000000000045" y="282.5" as="sourcePoint" />
            <mxPoint x="-267.48437041349234" y="252.49218520674572" as="targetPoint" />
          </mxGeometry>
        </mxCell>
        <mxCell id="BBe3EE57aWuY_gIeYWjr-217" value="" style="endArrow=none;html=1;rounded=0;strokeColor=#028090;strokeWidth=4;fillColor=#F45B69;fontColor=#E4FDE1;entryX=1;entryY=1;entryDx=0;entryDy=0;exitX=0.5;exitY=0;exitDx=0;exitDy=0;labelBackgroundColor=#114B5F;" parent="1" source="BBe3EE57aWuY_gIeYWjr-214" target="BBe3EE57aWuY_gIeYWjr-133" edge="1">
          <mxGeometry relative="1" as="geometry">
            <mxPoint x="-277.00000000000045" y="292.5" as="sourcePoint" />
            <mxPoint x="-257.48437041349234" y="262.4921852067457" as="targetPoint" />
          </mxGeometry>
        </mxCell>
        <mxCell id="BBe3EE57aWuY_gIeYWjr-218" value="&lt;font style=&quot;font-size: 16px&quot;&gt;&lt;i&gt;Phone&lt;/i&gt;&lt;/font&gt;" style="ellipse;shape=doubleEllipse;margin=3;whiteSpace=wrap;html=1;align=center;rounded=0;sketch=0;strokeColor=#028090;fillColor=#F45B69;fontColor=#E4FDE1;strokeWidth=1;perimeterSpacing=0;" parent="1" vertex="1">
          <mxGeometry x="1048" y="-415" width="91" height="46" as="geometry" />
        </mxCell>
        <mxCell id="BBe3EE57aWuY_gIeYWjr-219" value="" style="endArrow=none;html=1;rounded=0;strokeColor=#028090;strokeWidth=4;fillColor=#F45B69;fontColor=#E4FDE1;entryX=0;entryY=1;entryDx=0;entryDy=0;exitX=1;exitY=0;exitDx=0;exitDy=0;labelBackgroundColor=#114B5F;" parent="1" source="BBe3EE57aWuY_gIeYWjr-4" target="BBe3EE57aWuY_gIeYWjr-218" edge="1">
          <mxGeometry relative="1" as="geometry">
            <mxPoint x="998" y="-327" as="sourcePoint" />
            <mxPoint x="1017" y="-374" as="targetPoint" />
          </mxGeometry>
        </mxCell>
        <mxCell id="BBe3EE57aWuY_gIeYWjr-221" value="&lt;font style=&quot;font-size: 16px&quot;&gt;Lname&lt;br&gt;&lt;/font&gt;" style="ellipse;whiteSpace=wrap;html=1;align=center;rounded=0;sketch=0;strokeColor=#028090;fillColor=#F45B69;fontSize=14;fontColor=#E4FDE1;" parent="1" vertex="1">
          <mxGeometry x="647" y="-370" width="73" height="39" as="geometry" />
        </mxCell>
        <mxCell id="BBe3EE57aWuY_gIeYWjr-222" value="&lt;font style=&quot;font-size: 16px&quot;&gt;Fname&lt;br&gt;&lt;/font&gt;" style="ellipse;whiteSpace=wrap;html=1;align=center;rounded=0;sketch=0;strokeColor=#028090;fillColor=#F45B69;fontSize=14;fontColor=#E4FDE1;" parent="1" vertex="1">
          <mxGeometry x="644" y="-429" width="73" height="38" as="geometry" />
        </mxCell>
        <mxCell id="BBe3EE57aWuY_gIeYWjr-225" value="" style="endArrow=none;html=1;rounded=0;strokeColor=#028090;strokeWidth=4;fillColor=#F45B69;fontColor=#E4FDE1;exitX=1;exitY=0.5;exitDx=0;exitDy=0;entryX=0;entryY=0;entryDx=0;entryDy=0;labelBackgroundColor=#114B5F;" parent="1" source="BBe3EE57aWuY_gIeYWjr-222" target="BBe3EE57aWuY_gIeYWjr-188" edge="1">
          <mxGeometry relative="1" as="geometry">
            <mxPoint x="780.5000000000005" y="-362" as="sourcePoint" />
            <mxPoint x="893.25" y="-304" as="targetPoint" />
          </mxGeometry>
        </mxCell>
        <mxCell id="BBe3EE57aWuY_gIeYWjr-226" value="" style="endArrow=none;html=1;rounded=0;strokeColor=#028090;strokeWidth=4;fillColor=#F45B69;fontColor=#E4FDE1;exitX=1;exitY=0.5;exitDx=0;exitDy=0;entryX=0.323;entryY=1.032;entryDx=0;entryDy=0;entryPerimeter=0;labelBackgroundColor=#114B5F;" parent="1" source="BBe3EE57aWuY_gIeYWjr-221" target="BBe3EE57aWuY_gIeYWjr-188" edge="1">
          <mxGeometry relative="1" as="geometry">
            <mxPoint x="790.5000000000005" y="-352" as="sourcePoint" />
            <mxPoint x="903.25" y="-294" as="targetPoint" />
          </mxGeometry>
        </mxCell>
        <mxCell id="BBe3EE57aWuY_gIeYWjr-227" value="" style="shape=link;html=1;rounded=0;strokeColor=#028090;fillColor=#F45B69;fontColor=#E4FDE1;entryX=1;entryY=0;entryDx=0;entryDy=0;strokeWidth=4;labelBackgroundColor=#114B5F;" parent="1" source="BBe3EE57aWuY_gIeYWjr-4" target="BBe3EE57aWuY_gIeYWjr-165" edge="1">
          <mxGeometry relative="1" as="geometry">
            <mxPoint x="607" y="-26" as="sourcePoint" />
            <mxPoint x="767" y="-26" as="targetPoint" />
          </mxGeometry>
        </mxCell>
        <mxCell id="BBe3EE57aWuY_gIeYWjr-228" value="1" style="resizable=0;html=1;align=right;verticalAlign=bottom;fillColor=#F45B69;strokeColor=#028090;fontColor=#E4FDE1;" parent="BBe3EE57aWuY_gIeYWjr-227" connectable="0" vertex="1">
          <mxGeometry x="1" relative="1" as="geometry" />
        </mxCell>
        <mxCell id="5orM9V8n5dnu0wgwXtzG-3" value="" style="shape=link;html=1;rounded=0;shadow=0;strokeColor=#028090;strokeWidth=4;fillColor=#F45B69;fontSize=14;fontColor=#E4FDE1;entryX=0.403;entryY=0.878;entryDx=0;entryDy=0;exitX=1;exitY=0;exitDx=0;exitDy=0;entryPerimeter=0;labelBackgroundColor=#114B5F;" parent="1" source="BBe3EE57aWuY_gIeYWjr-69" target="BBe3EE57aWuY_gIeYWjr-60" edge="1">
          <mxGeometry relative="1" as="geometry">
            <mxPoint x="178" y="247" as="sourcePoint" />
            <mxPoint x="249" y="247" as="targetPoint" />
            <Array as="points" />
          </mxGeometry>
        </mxCell>
        <mxCell id="5orM9V8n5dnu0wgwXtzG-4" value="1" style="resizable=0;html=1;align=right;verticalAlign=bottom;fillColor=#F45B69;strokeColor=#028090;fontColor=#E4FDE1;" parent="5orM9V8n5dnu0wgwXtzG-3" connectable="0" vertex="1">
          <mxGeometry x="1" relative="1" as="geometry" />
        </mxCell>
        <mxCell id="IIiABblORkh0VtVI_wg2-1" value="&lt;font style=&quot;font-size: 14px&quot;&gt;InvestType&lt;/font&gt;" style="ellipse;whiteSpace=wrap;html=1;align=center;rounded=0;sketch=0;strokeColor=#028090;fillColor=#F45B69;fontSize=14;fontColor=#E4FDE1;" parent="1" vertex="1">
          <mxGeometry x="-447" y="-53" width="73" height="37" as="geometry" />
        </mxCell>
        <mxCell id="IIiABblORkh0VtVI_wg2-2" value="&lt;font style=&quot;font-size: 14px&quot;&gt;LoanType&lt;/font&gt;" style="ellipse;whiteSpace=wrap;html=1;align=center;rounded=0;sketch=0;strokeColor=#028090;fillColor=#F45B69;fontSize=14;fontColor=#E4FDE1;" parent="1" vertex="1">
          <mxGeometry x="65" y="-54.5" width="73" height="37" as="geometry" />
        </mxCell>
        <mxCell id="IIiABblORkh0VtVI_wg2-3" value="&lt;font style=&quot;font-size: 16px&quot;&gt;Lname&lt;/font&gt;" style="ellipse;whiteSpace=wrap;html=1;align=center;rounded=0;sketch=0;strokeColor=#028090;fillColor=#F45B69;fontSize=14;fontColor=#E4FDE1;" parent="1" vertex="1">
          <mxGeometry x="-1" y="396" width="73" height="37" as="geometry" />
        </mxCell>
        <mxCell id="IIiABblORkh0VtVI_wg2-4" value="&lt;font style=&quot;font-size: 16px&quot;&gt;Fname&lt;/font&gt;" style="ellipse;whiteSpace=wrap;html=1;align=center;rounded=0;sketch=0;strokeColor=#028090;fillColor=#F45B69;fontSize=14;fontColor=#E4FDE1;" parent="1" vertex="1">
          <mxGeometry x="-82" y="391" width="73" height="37" as="geometry" />
        </mxCell>
        <mxCell id="IIiABblORkh0VtVI_wg2-5" value="" style="endArrow=none;html=1;rounded=0;shadow=0;strokeColor=#028090;strokeWidth=4;fillColor=#F45B69;fontSize=14;fontColor=#E4FDE1;exitX=1;exitY=0;exitDx=0;exitDy=0;entryX=1;entryY=1;entryDx=0;entryDy=0;labelBackgroundColor=#114B5F;" parent="1" source="IIiABblORkh0VtVI_wg2-3" target="BBe3EE57aWuY_gIeYWjr-77" edge="1">
          <mxGeometry relative="1" as="geometry">
            <mxPoint x="-50.5" y="347" as="sourcePoint" />
            <mxPoint x="12" y="331" as="targetPoint" />
          </mxGeometry>
        </mxCell>
        <mxCell id="IIiABblORkh0VtVI_wg2-6" value="" style="endArrow=none;html=1;rounded=0;shadow=0;strokeColor=#028090;strokeWidth=4;fillColor=#F45B69;fontSize=14;fontColor=#E4FDE1;exitX=1;exitY=0;exitDx=0;exitDy=0;entryX=0;entryY=1;entryDx=0;entryDy=0;labelBackgroundColor=#114B5F;" parent="1" source="IIiABblORkh0VtVI_wg2-4" target="BBe3EE57aWuY_gIeYWjr-77" edge="1">
          <mxGeometry relative="1" as="geometry">
            <mxPoint x="-40.5" y="357" as="sourcePoint" />
            <mxPoint x="22" y="341" as="targetPoint" />
          </mxGeometry>
        </mxCell>
        <mxCell id="IIiABblORkh0VtVI_wg2-7" value="&lt;font style=&quot;font-size: 16px&quot;&gt;DOB&lt;/font&gt;" style="ellipse;whiteSpace=wrap;html=1;align=center;rounded=0;sketch=0;strokeColor=#028090;fillColor=#F45B69;fontSize=14;fontColor=#E4FDE1;" parent="1" vertex="1">
          <mxGeometry x="1039" y="256" width="73" height="37" as="geometry" />
        </mxCell>
        <mxCell id="IIiABblORkh0VtVI_wg2-8" value="&lt;font&gt;&lt;font style=&quot;font-size: 14px&quot;&gt;Start_date&lt;/font&gt;&lt;br&gt;&lt;/font&gt;" style="ellipse;whiteSpace=wrap;html=1;align=center;rounded=0;sketch=0;strokeColor=#028090;fillColor=#F45B69;fontSize=14;fontColor=#E4FDE1;" parent="1" vertex="1">
          <mxGeometry x="853" y="-6" width="73" height="39" as="geometry" />
        </mxCell>
        <mxCell id="IIiABblORkh0VtVI_wg2-9" value="&lt;font&gt;&lt;font style=&quot;font-size: 16px&quot;&gt;Balance&lt;/font&gt;&lt;br&gt;&lt;/font&gt;" style="ellipse;whiteSpace=wrap;html=1;align=center;rounded=0;sketch=0;strokeColor=#028090;fillColor=#F45B69;fontSize=14;fontColor=#E4FDE1;" parent="1" vertex="1">
          <mxGeometry x="515" y="19" width="73" height="39" as="geometry" />
        </mxCell>
        <mxCell id="IIiABblORkh0VtVI_wg2-10" value="" style="endArrow=none;html=1;rounded=0;strokeColor=#028090;strokeWidth=4;fillColor=#F45B69;fontColor=#E4FDE1;entryX=0;entryY=0.5;entryDx=0;entryDy=0;exitX=1;exitY=0.5;exitDx=0;exitDy=0;labelBackgroundColor=#114B5F;" parent="1" source="IIiABblORkh0VtVI_wg2-9" target="BBe3EE57aWuY_gIeYWjr-163" edge="1">
          <mxGeometry relative="1" as="geometry">
            <mxPoint x="712" y="67.99999999999977" as="sourcePoint" />
            <mxPoint x="713.0000000000005" y="112" as="targetPoint" />
          </mxGeometry>
        </mxCell>
        <mxCell id="IIiABblORkh0VtVI_wg2-11" value="&lt;font style=&quot;font-size: 16px&quot;&gt;Has&lt;/font&gt;" style="shape=rhombus;double=1;perimeter=rhombusPerimeter;whiteSpace=wrap;html=1;align=center;perimeterSpacing=0;strokeWidth=1;fillColor=#F45B69;strokeColor=#028090;fontColor=#E4FDE1;" parent="1" vertex="1">
          <mxGeometry x="998" y="-56" width="120" height="60" as="geometry" />
        </mxCell>
        <mxCell id="Jumh658WnAbwrEXqJOcm-3" value="" style="shape=link;html=1;rounded=0;shadow=0;strokeColor=#028090;strokeWidth=4;fillColor=#F45B69;fontSize=14;fontColor=#E4FDE1;exitX=0.75;exitY=0;exitDx=0;exitDy=0;entryX=0;entryY=1;entryDx=0;entryDy=0;labelBackgroundColor=#114B5F;" edge="1" parent="1" source="BBe3EE57aWuY_gIeYWjr-163" target="BBe3EE57aWuY_gIeYWjr-165">
          <mxGeometry relative="1" as="geometry">
            <mxPoint x="867" y="-277" as="sourcePoint" />
            <mxPoint x="760" y="-173.00000000000023" as="targetPoint" />
            <Array as="points" />
          </mxGeometry>
        </mxCell>
        <mxCell id="Jumh658WnAbwrEXqJOcm-4" value="N" style="resizable=0;html=1;align=right;verticalAlign=bottom;fillColor=#F45B69;strokeColor=#028090;fontColor=#E4FDE1;" connectable="0" vertex="1" parent="Jumh658WnAbwrEXqJOcm-3">
          <mxGeometry x="1" relative="1" as="geometry" />
        </mxCell>
      </root>
    </mxGraphModel>
  </diagram>
</mxfile>
